<svg width="329" height="340" viewBox="0 0 329 340" fill="none" xmlns="http://www.w3.org/2000/svg">
<g filter="url(#filter0_d)">
<circle cx="172" cy="168" r="113" fill="white"/>
</g>
<path d="M144.44 177.66C141.873 177.66 139.545 177.202 137.455 176.285C135.401 175.332 133.751 174.012 132.505 172.325C131.295 170.638 130.69 168.658 130.69 166.385C130.69 164.075 131.331 162.003 132.615 160.17C133.935 158.337 135.676 157.09 137.84 156.43C135.896 155.66 134.393 154.542 133.33 153.075C132.266 151.572 131.735 149.922 131.735 148.125C131.735 146.255 132.23 144.55 133.22 143.01C134.21 141.433 135.64 140.187 137.51 139.27C139.416 138.317 141.726 137.84 144.44 137.84C147.153 137.84 149.445 138.317 151.315 139.27C153.221 140.187 154.67 141.433 155.66 143.01C156.65 144.55 157.145 146.255 157.145 148.125C157.145 149.885 156.595 151.535 155.495 153.075C154.431 154.578 152.928 155.697 150.985 156.43C153.148 157.127 154.871 158.392 156.155 160.225C157.475 162.022 158.135 164.075 158.135 166.385C158.135 168.658 157.53 170.638 156.32 172.325C155.11 174.012 153.46 175.332 151.37 176.285C149.316 177.202 147.006 177.66 144.44 177.66ZM144.44 154.56C146.566 154.56 148.235 154.01 149.445 152.91C150.691 151.81 151.315 150.398 151.315 148.675C151.315 146.732 150.71 145.247 149.5 144.22C148.29 143.193 146.603 142.68 144.44 142.68C142.276 142.68 140.59 143.193 139.38 144.22C138.17 145.247 137.565 146.732 137.565 148.675C137.565 150.398 138.17 151.81 139.38 152.91C140.59 154.01 142.276 154.56 144.44 154.56ZM144.44 172.71C147.08 172.71 149.06 172.087 150.38 170.84C151.7 169.557 152.36 167.925 152.36 165.945C152.36 163.745 151.645 162.058 150.215 160.885C148.821 159.675 146.896 159.07 144.44 159.07C141.983 159.07 140.04 159.675 138.61 160.885C137.18 162.058 136.465 163.745 136.465 165.945C136.465 167.925 137.125 169.557 138.445 170.84C139.801 172.087 141.8 172.71 144.44 172.71ZM176.876 177.66C174.346 177.66 172.183 177.165 170.386 176.175C168.589 175.185 167.178 173.865 166.151 172.215C165.161 170.565 164.556 168.768 164.336 166.825H169.781C170.111 168.732 170.899 170.198 172.146 171.225C173.393 172.252 174.988 172.765 176.931 172.765C179.608 172.765 181.808 171.518 183.531 169.025C185.291 166.495 186.226 162.627 186.336 157.42C185.456 159.033 184.081 160.408 182.211 161.545C180.378 162.682 178.251 163.25 175.831 163.25C173.668 163.25 171.633 162.737 169.726 161.71C167.819 160.683 166.279 159.253 165.106 157.42C163.933 155.55 163.346 153.35 163.346 150.82C163.346 148.583 163.896 146.475 164.996 144.495C166.096 142.515 167.636 140.92 169.616 139.71C171.633 138.463 174.016 137.84 176.766 137.84C179.589 137.84 181.973 138.372 183.916 139.435C185.859 140.498 187.418 141.91 188.591 143.67C189.764 145.43 190.608 147.41 191.121 149.61C191.671 151.81 191.946 154.065 191.946 156.375C191.946 160.628 191.341 164.35 190.131 167.54C188.958 170.73 187.253 173.223 185.016 175.02C182.779 176.78 180.066 177.66 176.876 177.66ZM177.151 158.245C178.691 158.245 180.066 157.897 181.276 157.2C182.486 156.503 183.439 155.587 184.136 154.45C184.869 153.277 185.236 151.993 185.236 150.6C185.236 149.097 184.869 147.777 184.136 146.64C183.439 145.467 182.468 144.55 181.221 143.89C180.011 143.23 178.636 142.9 177.096 142.9C175.556 142.9 174.181 143.23 172.971 143.89C171.761 144.55 170.789 145.467 170.056 146.64C169.359 147.777 169.011 149.078 169.011 150.545C169.011 152.892 169.781 154.762 171.321 156.155C172.861 157.548 174.804 158.245 177.151 158.245ZM202.007 164.19C200.91 164.19 199.919 163.945 199.032 163.455C198.169 162.965 197.48 162.277 196.967 161.39C196.454 160.48 196.197 159.395 196.197 158.135C196.197 156.898 196.454 155.837 196.967 154.95C197.48 154.04 198.18 153.34 199.067 152.85C199.954 152.36 200.945 152.115 202.042 152.115C203.115 152.115 204.084 152.36 204.947 152.85C205.834 153.34 206.534 154.04 207.047 154.95C207.56 155.837 207.817 156.898 207.817 158.135C207.817 159.395 207.56 160.48 207.047 161.39C206.534 162.277 205.834 162.965 204.947 163.455C204.084 163.945 203.104 164.19 202.007 164.19ZM200.257 177L214.292 152.5H217.932L203.932 177H200.257ZM202.007 161.53C202.754 161.53 203.395 161.25 203.932 160.69C204.492 160.107 204.772 159.255 204.772 158.135C204.772 157.015 204.504 156.175 203.967 155.615C203.43 155.032 202.777 154.74 202.007 154.74C201.26 154.74 200.607 155.032 200.047 155.615C199.487 156.175 199.207 157.015 199.207 158.135C199.207 159.255 199.475 160.107 200.012 160.69C200.572 161.25 201.237 161.53 202.007 161.53ZM216.392 177.42C215.295 177.42 214.304 177.175 213.417 176.685C212.554 176.195 211.865 175.507 211.352 174.62C210.839 173.71 210.582 172.625 210.582 171.365C210.582 170.128 210.839 169.055 211.352 168.145C211.865 167.235 212.565 166.535 213.452 166.045C214.339 165.555 215.33 165.31 216.427 165.31C217.5 165.31 218.469 165.555 219.332 166.045C220.219 166.535 220.919 167.235 221.432 168.145C221.945 169.055 222.202 170.128 222.202 171.365C222.202 172.625 221.945 173.71 221.432 174.62C220.919 175.507 220.219 176.195 219.332 176.685C218.469 177.175 217.489 177.42 216.392 177.42ZM216.392 174.725C217.139 174.725 217.78 174.445 218.317 173.885C218.877 173.325 219.157 172.485 219.157 171.365C219.157 170.245 218.889 169.405 218.352 168.845C217.815 168.262 217.162 167.97 216.392 167.97C215.645 167.97 214.992 168.262 214.432 168.845C213.872 169.405 213.592 170.245 213.592 171.365C213.592 172.485 213.86 173.325 214.397 173.885C214.957 174.445 215.622 174.725 216.392 174.725Z" fill="#3D41D7"/>
<path d="M116.582 207V195.8H120.262C121.137 195.8 121.857 195.944 122.422 196.232C122.988 196.52 123.404 196.909 123.67 197.4C123.948 197.891 124.086 198.445 124.086 199.064C124.086 199.672 123.953 200.221 123.686 200.712C123.42 201.203 123.004 201.597 122.438 201.896C121.873 202.184 121.148 202.328 120.262 202.328H117.926V207H116.582ZM117.926 201.192H120.23C121.126 201.192 121.761 201.005 122.134 200.632C122.518 200.248 122.71 199.725 122.71 199.064C122.71 198.392 122.518 197.869 122.134 197.496C121.761 197.112 121.126 196.92 120.23 196.92H117.926V201.192ZM128.915 207.192C128.169 207.192 127.497 207.021 126.899 206.68C126.302 206.339 125.827 205.859 125.475 205.24C125.134 204.611 124.963 203.875 124.963 203.032C124.963 202.189 125.139 201.459 125.491 200.84C125.843 200.211 126.318 199.725 126.915 199.384C127.523 199.043 128.201 198.872 128.947 198.872C129.694 198.872 130.366 199.043 130.963 199.384C131.561 199.725 132.03 200.211 132.371 200.84C132.723 201.459 132.899 202.189 132.899 203.032C132.899 203.875 132.723 204.611 132.371 205.24C132.019 205.859 131.539 206.339 130.931 206.68C130.334 207.021 129.662 207.192 128.915 207.192ZM128.915 206.04C129.374 206.04 129.801 205.928 130.195 205.704C130.59 205.48 130.91 205.144 131.155 204.696C131.401 204.248 131.523 203.693 131.523 203.032C131.523 202.371 131.401 201.816 131.155 201.368C130.921 200.92 130.606 200.584 130.211 200.36C129.817 200.136 129.395 200.024 128.947 200.024C128.489 200.024 128.062 200.136 127.667 200.36C127.273 200.584 126.953 200.92 126.707 201.368C126.462 201.816 126.339 202.371 126.339 203.032C126.339 203.693 126.462 204.248 126.707 204.696C126.953 205.144 127.267 205.48 127.651 205.704C128.046 205.928 128.467 206.04 128.915 206.04ZM137.808 207.192C136.859 207.192 136.069 206.952 135.44 206.472C134.811 205.992 134.443 205.341 134.336 204.52H135.712C135.797 204.936 136.016 205.299 136.368 205.608C136.731 205.907 137.216 206.056 137.824 206.056C138.389 206.056 138.805 205.939 139.072 205.704C139.339 205.459 139.472 205.171 139.472 204.84C139.472 204.36 139.296 204.04 138.944 203.88C138.603 203.72 138.117 203.576 137.488 203.448C137.061 203.363 136.635 203.24 136.208 203.08C135.781 202.92 135.424 202.696 135.136 202.408C134.848 202.109 134.704 201.72 134.704 201.24C134.704 200.547 134.96 199.981 135.472 199.544C135.995 199.096 136.699 198.872 137.584 198.872C138.427 198.872 139.115 199.085 139.648 199.512C140.192 199.928 140.507 200.525 140.592 201.304H139.264C139.211 200.899 139.035 200.584 138.736 200.36C138.448 200.125 138.059 200.008 137.568 200.008C137.088 200.008 136.715 200.109 136.448 200.312C136.192 200.515 136.064 200.781 136.064 201.112C136.064 201.432 136.229 201.683 136.56 201.864C136.901 202.045 137.36 202.2 137.936 202.328C138.427 202.435 138.891 202.568 139.328 202.728C139.776 202.877 140.139 203.107 140.416 203.416C140.704 203.715 140.848 204.152 140.848 204.728C140.859 205.443 140.587 206.035 140.032 206.504C139.488 206.963 138.747 207.192 137.808 207.192ZM145.545 207C144.819 207 144.249 206.824 143.833 206.472C143.417 206.12 143.209 205.485 143.209 204.568V200.2H141.833V199.064H143.209L143.385 197.16H144.553V199.064H146.889V200.2H144.553V204.568C144.553 205.069 144.654 205.411 144.857 205.592C145.059 205.763 145.417 205.848 145.929 205.848H146.761V207H145.545ZM151.636 207.192C150.687 207.192 149.898 206.952 149.268 206.472C148.639 205.992 148.271 205.341 148.164 204.52H149.54C149.626 204.936 149.844 205.299 150.196 205.608C150.559 205.907 151.044 206.056 151.652 206.056C152.218 206.056 152.634 205.939 152.9 205.704C153.167 205.459 153.3 205.171 153.3 204.84C153.3 204.36 153.124 204.04 152.772 203.88C152.431 203.72 151.946 203.576 151.316 203.448C150.89 203.363 150.463 203.24 150.036 203.08C149.61 202.92 149.252 202.696 148.964 202.408C148.676 202.109 148.532 201.72 148.532 201.24C148.532 200.547 148.788 199.981 149.3 199.544C149.823 199.096 150.527 198.872 151.412 198.872C152.255 198.872 152.943 199.085 153.476 199.512C154.02 199.928 154.335 200.525 154.42 201.304H153.092C153.039 200.899 152.863 200.584 152.564 200.36C152.276 200.125 151.887 200.008 151.396 200.008C150.916 200.008 150.543 200.109 150.276 200.312C150.02 200.515 149.892 200.781 149.892 201.112C149.892 201.432 150.058 201.683 150.388 201.864C150.73 202.045 151.188 202.2 151.764 202.328C152.255 202.435 152.719 202.568 153.156 202.728C153.604 202.877 153.967 203.107 154.244 203.416C154.532 203.715 154.676 204.152 154.676 204.728C154.687 205.443 154.415 206.035 153.86 206.504C153.316 206.963 152.575 207.192 151.636 207.192ZM163.215 207.016L160.143 195.8H161.583L163.999 205.416L166.751 195.8H168.239L170.911 205.416L173.359 195.8H174.799L171.663 207H170.127L167.455 197.752L164.719 207L163.215 207.016ZM179.055 207.192C178.297 207.192 177.625 207.021 177.039 206.68C176.452 206.328 175.988 205.843 175.647 205.224C175.316 204.605 175.151 203.875 175.151 203.032C175.151 202.2 175.316 201.475 175.647 200.856C175.977 200.227 176.436 199.741 177.023 199.4C177.62 199.048 178.308 198.872 179.087 198.872C179.855 198.872 180.516 199.048 181.071 199.4C181.636 199.741 182.068 200.195 182.367 200.76C182.665 201.325 182.815 201.933 182.815 202.584C182.815 202.701 182.809 202.819 182.799 202.936C182.799 203.053 182.799 203.187 182.799 203.336H176.479C176.511 203.944 176.649 204.451 176.895 204.856C177.151 205.251 177.465 205.549 177.839 205.752C178.223 205.955 178.628 206.056 179.055 206.056C179.609 206.056 180.073 205.928 180.447 205.672C180.82 205.416 181.092 205.069 181.263 204.632H182.591C182.377 205.368 181.967 205.981 181.359 206.472C180.761 206.952 179.993 207.192 179.055 207.192ZM179.055 200.008C178.415 200.008 177.844 200.205 177.343 200.6C176.852 200.984 176.569 201.549 176.495 202.296H181.487C181.455 201.581 181.209 201.021 180.751 200.616C180.292 200.211 179.727 200.008 179.055 200.008ZM184.596 207V199.064H185.812L185.892 200.488C186.148 199.987 186.516 199.592 186.996 199.304C187.476 199.016 188.02 198.872 188.628 198.872C189.567 198.872 190.314 199.16 190.868 199.736C191.434 200.301 191.716 201.176 191.716 202.36V207H190.372V202.504C190.372 200.851 189.69 200.024 188.324 200.024C187.642 200.024 187.071 200.275 186.612 200.776C186.164 201.267 185.94 201.971 185.94 202.888V207H184.596ZM196.888 207C196.163 207 195.592 206.824 195.176 206.472C194.76 206.12 194.552 205.485 194.552 204.568V200.2H193.176V199.064H194.552L194.728 197.16H195.896V199.064H198.232V200.2H195.896V204.568C195.896 205.069 195.998 205.411 196.2 205.592C196.403 205.763 196.76 205.848 197.272 205.848H198.104V207H196.888ZM207.63 207L203.422 195.8H204.878L208.414 205.576L211.982 195.8H213.406L209.198 207H207.63ZM215.678 197.304C215.411 197.304 215.187 197.219 215.006 197.048C214.835 196.867 214.75 196.643 214.75 196.376C214.75 196.12 214.835 195.907 215.006 195.736C215.187 195.565 215.411 195.48 215.678 195.48C215.934 195.48 216.152 195.565 216.334 195.736C216.515 195.907 216.606 196.12 216.606 196.376C216.606 196.643 216.515 196.867 216.334 197.048C216.152 197.219 215.934 197.304 215.678 197.304ZM215.006 207V199.064H216.35V207H215.006ZM218.69 207V199.064H219.906L220.018 200.584C220.263 200.061 220.637 199.645 221.138 199.336C221.639 199.027 222.258 198.872 222.994 198.872V200.28H222.626C222.157 200.28 221.725 200.365 221.33 200.536C220.935 200.696 220.621 200.973 220.386 201.368C220.151 201.763 220.034 202.307 220.034 203V207H218.69ZM227.142 207.192C226.481 207.192 225.932 207.08 225.494 206.856C225.057 206.632 224.732 206.333 224.518 205.96C224.305 205.587 224.198 205.181 224.198 204.744C224.198 203.933 224.508 203.309 225.126 202.872C225.745 202.435 226.588 202.216 227.654 202.216H229.798V202.12C229.798 201.427 229.617 200.904 229.254 200.552C228.892 200.189 228.406 200.008 227.798 200.008C227.276 200.008 226.822 200.141 226.438 200.408C226.065 200.664 225.83 201.043 225.734 201.544H224.358C224.412 200.968 224.604 200.483 224.934 200.088C225.276 199.693 225.697 199.395 226.198 199.192C226.7 198.979 227.233 198.872 227.798 198.872C228.908 198.872 229.74 199.171 230.294 199.768C230.86 200.355 231.142 201.139 231.142 202.12V207H229.942L229.862 205.576C229.638 206.024 229.308 206.408 228.87 206.728C228.444 207.037 227.868 207.192 227.142 207.192ZM227.35 206.056C227.862 206.056 228.3 205.923 228.662 205.656C229.036 205.389 229.318 205.043 229.51 204.616C229.702 204.189 229.798 203.741 229.798 203.272V203.256H227.766C226.977 203.256 226.417 203.395 226.086 203.672C225.766 203.939 225.606 204.275 225.606 204.68C225.606 205.096 225.756 205.432 226.054 205.688C226.364 205.933 226.796 206.056 227.35 206.056ZM233.159 207V195.48H234.503V207H233.159Z" fill="#8F92A1"/>
<g filter="url(#filter1_d)">
<path d="M251.903 247.903C239.743 260.063 224.967 269.288 208.703 274.873C192.438 280.459 175.113 282.259 158.047 280.135C140.982 278.012 124.626 272.021 110.226 262.62C95.8257 253.219 83.7615 240.655 74.9521 225.885C66.1427 211.116 60.8205 194.53 59.3911 177.393C57.9616 160.255 60.4626 143.017 66.7035 126.992C72.9443 110.967 82.7605 96.5784 95.404 84.9214C108.048 73.2645 123.185 64.6471 139.663 59.7258" stroke="#FF8831" stroke-width="30" stroke-linecap="round" stroke-linejoin="round"/>
</g>
<defs>
<filter id="filter0_d" x="15" y="11" width="314" height="314" filterUnits="userSpaceOnUse" color-interpolation-filters="sRGB">
<feFlood flood-opacity="0" result="BackgroundImageFix"/>
<feColorMatrix in="SourceAlpha" type="matrix" values="0 0 0 0 0 0 0 0 0 0 0 0 0 0 0 0 0 0 127 0"/>
<feOffset/>
<feGaussianBlur stdDeviation="22"/>
<feColorMatrix type="matrix" values="0 0 0 0 0.1325 0 0 0 0 0.145427 0 0 0 0 0.6625 0 0 0 0.1 0"/>
<feBlend mode="normal" in2="BackgroundImageFix" result="effect1_dropShadow"/>
<feBlend mode="normal" in="SourceGraphic" in2="effect1_dropShadow" result="shape"/>
</filter>
<filter id="filter1_d" x="-3.8147e-06" y="0.721832" width="310.903" height="339.278" filterUnits="userSpaceOnUse" color-interpolation-filters="sRGB">
<feFlood flood-opacity="0" result="BackgroundImageFix"/>
<feColorMatrix in="SourceAlpha" type="matrix" values="0 0 0 0 0 0 0 0 0 0 0 0 0 0 0 0 0 0 127 0"/>
<feOffset/>
<feGaussianBlur stdDeviation="22"/>
<feColorMatrix type="matrix" values="0 0 0 0 0.1325 0 0 0 0 0.145427 0 0 0 0 0.6625 0 0 0 0.1 0"/>
<feBlend mode="normal" in2="BackgroundImageFix" result="effect1_dropShadow"/>
<feBlend mode="normal" in="SourceGraphic" in2="effect1_dropShadow" result="shape"/>
</filter>
</defs>
</svg>
