<svg width="333" height="164" viewBox="0 0 333 164" fill="none" xmlns="http://www.w3.org/2000/svg">
<rect x="15" width="299" height="164" rx="20" fill="#F6F8FF"/>
<path fill-rule="evenodd" clip-rule="evenodd" d="M233.192 131.902L232.213 132.877L229.965 130.619L229.956 140.013L228.575 140.011L228.584 130.643L226.354 132.863L225.38 131.884L229.295 127.987L233.192 131.902Z" fill="#00875A"/>
<path d="M242.016 139V131.244L240.406 131.622V130.25L242.772 129.2H243.878V139H242.016ZM249.52 139.168C248.615 139.168 247.84 138.958 247.196 138.538C246.552 138.109 246.053 137.516 245.698 136.76C245.353 135.995 245.18 135.108 245.18 134.1C245.18 133.101 245.353 132.219 245.698 131.454C246.053 130.689 246.552 130.096 247.196 129.676C247.84 129.247 248.615 129.032 249.52 129.032C250.425 129.032 251.2 129.247 251.844 129.676C252.488 130.096 252.983 130.689 253.328 131.454C253.683 132.219 253.86 133.101 253.86 134.1C253.86 135.108 253.683 135.995 253.328 136.76C252.983 137.516 252.488 138.109 251.844 138.538C251.2 138.958 250.425 139.168 249.52 139.168ZM249.52 137.558C250.257 137.558 250.859 137.25 251.326 136.634C251.793 136.018 252.026 135.173 252.026 134.1C252.026 133.027 251.793 132.182 251.326 131.566C250.859 130.95 250.257 130.642 249.52 130.642C248.773 130.642 248.167 130.95 247.7 131.566C247.243 132.182 247.014 133.027 247.014 134.1C247.014 135.173 247.243 136.018 247.7 136.634C248.167 137.25 248.773 137.558 249.52 137.558ZM258.679 139.168C257.961 139.168 257.34 139.042 256.817 138.79C256.304 138.538 255.898 138.193 255.599 137.754C255.31 137.306 255.142 136.802 255.095 136.242H256.845C256.929 136.643 257.135 136.979 257.461 137.25C257.788 137.511 258.194 137.642 258.679 137.642C259.202 137.642 259.627 137.451 259.953 137.068C260.289 136.685 260.457 136.209 260.457 135.64C260.457 135.052 260.289 134.585 259.953 134.24C259.627 133.895 259.211 133.722 258.707 133.722C258.287 133.722 257.923 133.825 257.615 134.03C257.307 134.235 257.088 134.492 256.957 134.8H255.235L256.075 129.2H261.507V130.768H257.419L256.971 133.036C257.177 132.812 257.457 132.63 257.811 132.49C258.166 132.341 258.563 132.266 259.001 132.266C259.701 132.266 260.285 132.425 260.751 132.742C261.218 133.05 261.573 133.461 261.815 133.974C262.058 134.478 262.179 135.029 262.179 135.626C262.179 136.307 262.03 136.914 261.731 137.446C261.442 137.978 261.031 138.398 260.499 138.706C259.977 139.014 259.37 139.168 258.679 139.168ZM264.299 139.098C263.972 139.098 263.701 138.995 263.487 138.79C263.281 138.585 263.179 138.337 263.179 138.048C263.179 137.749 263.281 137.497 263.487 137.292C263.701 137.087 263.972 136.984 264.299 136.984C264.625 136.984 264.891 137.087 265.097 137.292C265.311 137.497 265.419 137.749 265.419 138.048C265.419 138.337 265.311 138.585 265.097 138.79C264.891 138.995 264.625 139.098 264.299 139.098ZM266.42 139V137.698C267.017 137.203 267.596 136.713 268.156 136.228C268.725 135.743 269.229 135.262 269.668 134.786C270.116 134.31 270.47 133.848 270.732 133.4C271.002 132.943 271.138 132.499 271.138 132.07C271.138 131.669 271.026 131.314 270.802 131.006C270.587 130.698 270.228 130.544 269.724 130.544C269.21 130.544 268.823 130.712 268.562 131.048C268.3 131.384 268.17 131.79 268.17 132.266H266.434C266.452 131.547 266.611 130.95 266.91 130.474C267.208 129.989 267.605 129.629 268.1 129.396C268.594 129.153 269.15 129.032 269.766 129.032C270.764 129.032 271.539 129.307 272.09 129.858C272.65 130.399 272.93 131.104 272.93 131.972C272.93 132.513 272.804 133.041 272.552 133.554C272.309 134.067 271.987 134.562 271.586 135.038C271.184 135.514 270.75 135.962 270.284 136.382C269.817 136.793 269.364 137.175 268.926 137.53H273.168V139H266.42ZM277.586 139.168C276.942 139.168 276.358 139.056 275.836 138.832C275.313 138.599 274.893 138.244 274.576 137.768C274.258 137.292 274.09 136.695 274.072 135.976H275.836C275.845 136.452 275.999 136.853 276.298 137.18C276.606 137.497 277.035 137.656 277.586 137.656C278.108 137.656 278.51 137.511 278.79 137.222C279.07 136.933 279.21 136.569 279.21 136.13C279.21 135.617 279.023 135.229 278.65 134.968C278.286 134.697 277.814 134.562 277.236 134.562H276.508V133.092H277.25C277.726 133.092 278.122 132.98 278.44 132.756C278.757 132.532 278.916 132.201 278.916 131.762C278.916 131.398 278.794 131.109 278.552 130.894C278.318 130.67 277.992 130.558 277.572 130.558C277.114 130.558 276.755 130.693 276.494 130.964C276.242 131.235 276.102 131.566 276.074 131.958H274.324C274.361 131.053 274.674 130.339 275.262 129.816C275.859 129.293 276.629 129.032 277.572 129.032C278.244 129.032 278.808 129.153 279.266 129.396C279.732 129.629 280.082 129.942 280.316 130.334C280.558 130.726 280.68 131.16 280.68 131.636C280.68 132.187 280.526 132.653 280.218 133.036C279.919 133.409 279.546 133.661 279.098 133.792C279.648 133.904 280.096 134.175 280.442 134.604C280.787 135.024 280.96 135.556 280.96 136.2C280.96 136.741 280.829 137.236 280.568 137.684C280.306 138.132 279.924 138.491 279.42 138.762C278.925 139.033 278.314 139.168 277.586 139.168ZM287.519 134.016C287.071 134.016 286.665 133.918 286.301 133.722C285.937 133.517 285.648 133.227 285.433 132.854C285.218 132.481 285.111 132.037 285.111 131.524C285.111 131.011 285.218 130.567 285.433 130.194C285.648 129.821 285.937 129.536 286.301 129.34C286.665 129.135 287.076 129.032 287.533 129.032C287.981 129.032 288.382 129.135 288.737 129.34C289.101 129.536 289.39 129.821 289.605 130.194C289.82 130.567 289.927 131.011 289.927 131.524C289.927 132.037 289.82 132.481 289.605 132.854C289.39 133.227 289.101 133.517 288.737 133.722C288.373 133.918 287.967 134.016 287.519 134.016ZM286.987 139L292.517 129.2H294.267L288.737 139H286.987ZM287.519 132.77C287.79 132.77 288.023 132.667 288.219 132.462C288.415 132.247 288.513 131.935 288.513 131.524C288.513 131.113 288.415 130.801 288.219 130.586C288.032 130.371 287.799 130.264 287.519 130.264C287.239 130.264 287.001 130.371 286.805 130.586C286.618 130.801 286.525 131.113 286.525 131.524C286.525 131.935 286.618 132.247 286.805 132.462C287.001 132.667 287.239 132.77 287.519 132.77ZM293.791 139.168C293.343 139.168 292.937 139.07 292.573 138.874C292.209 138.669 291.92 138.379 291.705 138.006C291.49 137.633 291.383 137.189 291.383 136.676C291.383 136.163 291.49 135.724 291.705 135.36C291.92 134.987 292.209 134.702 292.573 134.506C292.937 134.301 293.348 134.198 293.805 134.198C294.253 134.198 294.654 134.301 295.009 134.506C295.373 134.702 295.662 134.987 295.877 135.36C296.092 135.724 296.199 136.163 296.199 136.676C296.199 137.189 296.092 137.633 295.877 138.006C295.662 138.379 295.373 138.669 295.009 138.874C294.654 139.07 294.248 139.168 293.791 139.168ZM293.791 137.922C294.071 137.922 294.304 137.819 294.491 137.614C294.687 137.399 294.785 137.087 294.785 136.676C294.785 136.265 294.687 135.953 294.491 135.738C294.304 135.523 294.071 135.416 293.791 135.416C293.511 135.416 293.273 135.523 293.077 135.738C292.89 135.953 292.797 136.265 292.797 136.676C292.797 137.087 292.89 137.399 293.077 137.614C293.273 137.819 293.511 137.922 293.791 137.922Z" fill="#00875A"/>
<path d="M230.97 152.12C230.457 152.12 230.01 152.027 229.63 151.84C229.25 151.653 228.957 151.393 228.75 151.06C228.543 150.727 228.44 150.34 228.44 149.9H229.32C229.32 150.173 229.383 150.427 229.51 150.66C229.637 150.887 229.82 151.07 230.06 151.21C230.307 151.343 230.61 151.41 230.97 151.41C231.443 151.41 231.81 151.297 232.07 151.07C232.33 150.843 232.46 150.56 232.46 150.22C232.46 149.94 232.4 149.717 232.28 149.55C232.16 149.377 231.997 149.237 231.79 149.13C231.59 149.023 231.357 148.93 231.09 148.85C230.83 148.77 230.557 148.68 230.27 148.58C229.73 148.393 229.33 148.163 229.07 147.89C228.81 147.61 228.68 147.247 228.68 146.8C228.673 146.427 228.76 146.097 228.94 145.81C229.12 145.517 229.373 145.29 229.7 145.13C230.033 144.963 230.427 144.88 230.88 144.88C231.327 144.88 231.713 144.963 232.04 145.13C232.373 145.297 232.63 145.527 232.81 145.82C232.997 146.113 233.093 146.447 233.1 146.82H232.22C232.22 146.627 232.17 146.437 232.07 146.25C231.97 146.057 231.817 145.9 231.61 145.78C231.41 145.66 231.157 145.6 230.85 145.6C230.47 145.593 230.157 145.69 229.91 145.89C229.67 146.09 229.55 146.367 229.55 146.72C229.55 147.02 229.633 147.25 229.8 147.41C229.973 147.57 230.213 147.703 230.52 147.81C230.827 147.91 231.18 148.027 231.58 148.16C231.913 148.28 232.213 148.42 232.48 148.58C232.747 148.74 232.953 148.947 233.1 149.2C233.253 149.453 233.33 149.777 233.33 150.17C233.33 150.503 233.243 150.82 233.07 151.12C232.897 151.413 232.633 151.653 232.28 151.84C231.933 152.027 231.497 152.12 230.97 152.12ZM234.796 145.94C234.629 145.94 234.489 145.887 234.376 145.78C234.269 145.667 234.216 145.527 234.216 145.36C234.216 145.2 234.269 145.067 234.376 144.96C234.489 144.853 234.629 144.8 234.796 144.8C234.956 144.8 235.092 144.853 235.206 144.96C235.319 145.067 235.376 145.2 235.376 145.36C235.376 145.527 235.319 145.667 235.206 145.78C235.092 145.887 234.956 145.94 234.796 145.94ZM234.376 152V147.04H235.216V152H234.376ZM236.492 152V147.04H237.252L237.302 147.93C237.462 147.617 237.692 147.37 237.992 147.19C238.292 147.01 238.632 146.92 239.012 146.92C239.599 146.92 240.066 147.1 240.412 147.46C240.766 147.813 240.942 148.36 240.942 149.1V152H240.102V149.19C240.102 148.157 239.676 147.64 238.822 147.64C238.396 147.64 238.039 147.797 237.752 148.11C237.472 148.417 237.332 148.857 237.332 149.43V152H236.492ZM244.309 152.12C243.836 152.12 243.409 152.013 243.029 151.8C242.656 151.58 242.359 151.277 242.139 150.89C241.926 150.497 241.819 150.04 241.819 149.52C241.819 149 241.926 148.547 242.139 148.16C242.359 147.767 242.656 147.463 243.029 147.25C243.409 147.03 243.836 146.92 244.309 146.92C244.896 146.92 245.389 147.073 245.789 147.38C246.196 147.687 246.453 148.097 246.559 148.61H245.699C245.633 148.303 245.469 148.067 245.209 147.9C244.949 147.727 244.646 147.64 244.299 147.64C244.019 147.64 243.756 147.71 243.509 147.85C243.263 147.99 243.063 148.2 242.909 148.48C242.756 148.76 242.679 149.107 242.679 149.52C242.679 149.933 242.756 150.28 242.909 150.56C243.063 150.84 243.263 151.053 243.509 151.2C243.756 151.34 244.019 151.41 244.299 151.41C244.646 151.41 244.949 151.327 245.209 151.16C245.469 150.987 245.633 150.743 245.699 150.43H246.559C246.459 150.93 246.206 151.337 245.799 151.65C245.393 151.963 244.896 152.12 244.309 152.12ZM249.777 152.12C249.303 152.12 248.883 152.013 248.517 151.8C248.15 151.58 247.86 151.277 247.647 150.89C247.44 150.503 247.337 150.047 247.337 149.52C247.337 149 247.44 148.547 247.647 148.16C247.853 147.767 248.14 147.463 248.507 147.25C248.88 147.03 249.31 146.92 249.797 146.92C250.277 146.92 250.69 147.03 251.037 147.25C251.39 147.463 251.66 147.747 251.847 148.1C252.033 148.453 252.127 148.833 252.127 149.24C252.127 149.313 252.123 149.387 252.117 149.46C252.117 149.533 252.117 149.617 252.117 149.71H248.167C248.187 150.09 248.273 150.407 248.427 150.66C248.587 150.907 248.783 151.093 249.017 151.22C249.257 151.347 249.51 151.41 249.777 151.41C250.123 151.41 250.413 151.33 250.647 151.17C250.88 151.01 251.05 150.793 251.157 150.52H251.987C251.853 150.98 251.597 151.363 251.217 151.67C250.843 151.97 250.363 152.12 249.777 152.12ZM249.777 147.63C249.377 147.63 249.02 147.753 248.707 148C248.4 148.24 248.223 148.593 248.177 149.06H251.297C251.277 148.613 251.123 148.263 250.837 148.01C250.55 147.757 250.197 147.63 249.777 147.63ZM255.515 152V144.8H256.355V152H255.515ZM259.196 152.12C258.783 152.12 258.44 152.05 258.166 151.91C257.893 151.77 257.69 151.583 257.556 151.35C257.423 151.117 257.356 150.863 257.356 150.59C257.356 150.083 257.55 149.693 257.936 149.42C258.323 149.147 258.85 149.01 259.516 149.01H260.856V148.95C260.856 148.517 260.743 148.19 260.516 147.97C260.29 147.743 259.986 147.63 259.606 147.63C259.28 147.63 258.996 147.713 258.756 147.88C258.523 148.04 258.376 148.277 258.316 148.59H257.456C257.49 148.23 257.61 147.927 257.816 147.68C258.03 147.433 258.293 147.247 258.606 147.12C258.92 146.987 259.253 146.92 259.606 146.92C260.3 146.92 260.82 147.107 261.166 147.48C261.52 147.847 261.696 148.337 261.696 148.95V152H260.946L260.896 151.11C260.756 151.39 260.55 151.63 260.276 151.83C260.01 152.023 259.65 152.12 259.196 152.12ZM259.326 151.41C259.646 151.41 259.92 151.327 260.146 151.16C260.38 150.993 260.556 150.777 260.676 150.51C260.796 150.243 260.856 149.963 260.856 149.67V149.66H259.586C259.093 149.66 258.743 149.747 258.536 149.92C258.336 150.087 258.236 150.297 258.236 150.55C258.236 150.81 258.33 151.02 258.516 151.18C258.71 151.333 258.98 151.41 259.326 151.41ZM264.671 152.12C264.077 152.12 263.584 151.97 263.191 151.67C262.797 151.37 262.567 150.963 262.501 150.45H263.361C263.414 150.71 263.551 150.937 263.771 151.13C263.997 151.317 264.301 151.41 264.681 151.41C265.034 151.41 265.294 151.337 265.461 151.19C265.627 151.037 265.711 150.857 265.711 150.65C265.711 150.35 265.601 150.15 265.381 150.05C265.167 149.95 264.864 149.86 264.471 149.78C264.204 149.727 263.937 149.65 263.671 149.55C263.404 149.45 263.181 149.31 263.001 149.13C262.821 148.943 262.731 148.7 262.731 148.4C262.731 147.967 262.891 147.613 263.211 147.34C263.537 147.06 263.977 146.92 264.531 146.92C265.057 146.92 265.487 147.053 265.821 147.32C266.161 147.58 266.357 147.953 266.411 148.44H265.581C265.547 148.187 265.437 147.99 265.251 147.85C265.071 147.703 264.827 147.63 264.521 147.63C264.221 147.63 263.987 147.693 263.821 147.82C263.661 147.947 263.581 148.113 263.581 148.32C263.581 148.52 263.684 148.677 263.891 148.79C264.104 148.903 264.391 149 264.751 149.08C265.057 149.147 265.347 149.23 265.621 149.33C265.901 149.423 266.127 149.567 266.301 149.76C266.481 149.947 266.571 150.22 266.571 150.58C266.577 151.027 266.407 151.397 266.061 151.69C265.721 151.977 265.257 152.12 264.671 152.12ZM269.32 152C268.867 152 268.51 151.89 268.25 151.67C267.99 151.45 267.86 151.053 267.86 150.48V147.75H267V147.04H267.86L267.97 145.85H268.7V147.04H270.16V147.75H268.7V150.48C268.7 150.793 268.764 151.007 268.89 151.12C269.017 151.227 269.24 151.28 269.56 151.28H270.08V152H269.32ZM274.043 154.2L275.273 151.52H274.983L273.013 147.04H273.923L275.563 150.9L277.303 147.04H278.173L274.923 154.2H274.043ZM280.635 152.12C280.161 152.12 279.741 152.013 279.375 151.8C279.008 151.58 278.718 151.277 278.505 150.89C278.298 150.503 278.195 150.047 278.195 149.52C278.195 149 278.298 148.547 278.505 148.16C278.711 147.767 278.998 147.463 279.365 147.25C279.738 147.03 280.168 146.92 280.655 146.92C281.135 146.92 281.548 147.03 281.895 147.25C282.248 147.463 282.518 147.747 282.705 148.1C282.891 148.453 282.985 148.833 282.985 149.24C282.985 149.313 282.981 149.387 282.975 149.46C282.975 149.533 282.975 149.617 282.975 149.71H279.025C279.045 150.09 279.131 150.407 279.285 150.66C279.445 150.907 279.641 151.093 279.875 151.22C280.115 151.347 280.368 151.41 280.635 151.41C280.981 151.41 281.271 151.33 281.505 151.17C281.738 151.01 281.908 150.793 282.015 150.52H282.845C282.711 150.98 282.455 151.363 282.075 151.67C281.701 151.97 281.221 152.12 280.635 152.12ZM280.635 147.63C280.235 147.63 279.878 147.753 279.565 148C279.258 148.24 279.081 148.593 279.035 149.06H282.155C282.135 148.613 281.981 148.263 281.695 148.01C281.408 147.757 281.055 147.63 280.635 147.63ZM285.562 152.12C285.149 152.12 284.806 152.05 284.532 151.91C284.259 151.77 284.056 151.583 283.922 151.35C283.789 151.117 283.722 150.863 283.722 150.59C283.722 150.083 283.916 149.693 284.302 149.42C284.689 149.147 285.216 149.01 285.882 149.01H287.222V148.95C287.222 148.517 287.109 148.19 286.882 147.97C286.656 147.743 286.352 147.63 285.972 147.63C285.646 147.63 285.362 147.713 285.122 147.88C284.889 148.04 284.742 148.277 284.682 148.59H283.822C283.856 148.23 283.976 147.927 284.182 147.68C284.396 147.433 284.659 147.247 284.972 147.12C285.286 146.987 285.619 146.92 285.972 146.92C286.666 146.92 287.186 147.107 287.532 147.48C287.886 147.847 288.062 148.337 288.062 148.95V152H287.312L287.262 151.11C287.122 151.39 286.916 151.63 286.642 151.83C286.376 152.023 286.016 152.12 285.562 152.12ZM285.692 151.41C286.012 151.41 286.286 151.327 286.512 151.16C286.746 150.993 286.922 150.777 287.042 150.51C287.162 150.243 287.222 149.963 287.222 149.67V149.66H285.952C285.459 149.66 285.109 149.747 284.902 149.92C284.702 150.087 284.602 150.297 284.602 150.55C284.602 150.81 284.696 151.02 284.882 151.18C285.076 151.333 285.346 151.41 285.692 151.41ZM289.137 152V147.04H289.897L289.967 147.99C290.12 147.663 290.354 147.403 290.667 147.21C290.98 147.017 291.367 146.92 291.827 146.92V147.8H291.597C291.304 147.8 291.034 147.853 290.787 147.96C290.54 148.06 290.344 148.233 290.197 148.48C290.05 148.727 289.977 149.067 289.977 149.5V152H289.137Z" fill="#8F92A1"/>
<path d="M36.85 152L34.22 145H35.13L37.34 151.11L39.57 145H40.46L37.83 152H36.85ZM41.694 145.94C41.5273 145.94 41.3873 145.887 41.274 145.78C41.1673 145.667 41.114 145.527 41.114 145.36C41.114 145.2 41.1673 145.067 41.274 144.96C41.3873 144.853 41.5273 144.8 41.694 144.8C41.854 144.8 41.9906 144.853 42.104 144.96C42.2173 145.067 42.274 145.2 42.274 145.36C42.274 145.527 42.2173 145.667 42.104 145.78C41.9906 145.887 41.854 145.94 41.694 145.94ZM41.274 152V147.04H42.114V152H41.274ZM45.2908 152.12C44.6975 152.12 44.2042 151.97 43.8108 151.67C43.4175 151.37 43.1875 150.963 43.1208 150.45H43.9808C44.0342 150.71 44.1708 150.937 44.3908 151.13C44.6175 151.317 44.9208 151.41 45.3008 151.41C45.6542 151.41 45.9142 151.337 46.0808 151.19C46.2475 151.037 46.3308 150.857 46.3308 150.65C46.3308 150.35 46.2208 150.15 46.0008 150.05C45.7875 149.95 45.4842 149.86 45.0908 149.78C44.8242 149.727 44.5575 149.65 44.2908 149.55C44.0242 149.45 43.8008 149.31 43.6208 149.13C43.4408 148.943 43.3508 148.7 43.3508 148.4C43.3508 147.967 43.5108 147.613 43.8308 147.34C44.1575 147.06 44.5975 146.92 45.1508 146.92C45.6775 146.92 46.1075 147.053 46.4408 147.32C46.7808 147.58 46.9775 147.953 47.0308 148.44H46.2008C46.1675 148.187 46.0575 147.99 45.8708 147.85C45.6908 147.703 45.4475 147.63 45.1408 147.63C44.8408 147.63 44.6075 147.693 44.4408 147.82C44.2808 147.947 44.2008 148.113 44.2008 148.32C44.2008 148.52 44.3042 148.677 44.5108 148.79C44.7242 148.903 45.0108 149 45.3708 149.08C45.6775 149.147 45.9675 149.23 46.2408 149.33C46.5208 149.423 46.7475 149.567 46.9208 149.76C47.1008 149.947 47.1908 150.22 47.1908 150.58C47.1975 151.027 47.0275 151.397 46.6808 151.69C46.3408 151.977 45.8775 152.12 45.2908 152.12ZM48.7151 145.94C48.5485 145.94 48.4085 145.887 48.2951 145.78C48.1885 145.667 48.1351 145.527 48.1351 145.36C48.1351 145.2 48.1885 145.067 48.2951 144.96C48.4085 144.853 48.5485 144.8 48.7151 144.8C48.8751 144.8 49.0118 144.853 49.1251 144.96C49.2385 145.067 49.2951 145.2 49.2951 145.36C49.2951 145.527 49.2385 145.667 49.1251 145.78C49.0118 145.887 48.8751 145.94 48.7151 145.94ZM48.2951 152V147.04H49.1351V152H48.2951ZM52.372 152C51.9187 152 51.562 151.89 51.302 151.67C51.042 151.45 50.912 151.053 50.912 150.48V147.75H50.052V147.04H50.912L51.022 145.85H51.752V147.04H53.212V147.75H51.752V150.48C51.752 150.793 51.8153 151.007 51.942 151.12C52.0687 151.227 52.292 151.28 52.612 151.28H53.132V152H52.372ZM56.2167 152.12C55.7501 152.12 55.3301 152.013 54.9567 151.8C54.5834 151.587 54.2867 151.287 54.0667 150.9C53.8534 150.507 53.7467 150.047 53.7467 149.52C53.7467 148.993 53.8567 148.537 54.0767 148.15C54.2967 147.757 54.5934 147.453 54.9667 147.24C55.3467 147.027 55.7701 146.92 56.2367 146.92C56.7034 146.92 57.1234 147.027 57.4967 147.24C57.8701 147.453 58.1634 147.757 58.3767 148.15C58.5967 148.537 58.7067 148.993 58.7067 149.52C58.7067 150.047 58.5967 150.507 58.3767 150.9C58.1567 151.287 57.8567 151.587 57.4767 151.8C57.1034 152.013 56.6834 152.12 56.2167 152.12ZM56.2167 151.4C56.5034 151.4 56.7701 151.33 57.0167 151.19C57.2634 151.05 57.4634 150.84 57.6167 150.56C57.7701 150.28 57.8467 149.933 57.8467 149.52C57.8467 149.107 57.7701 148.76 57.6167 148.48C57.4701 148.2 57.2734 147.99 57.0267 147.85C56.7801 147.71 56.5167 147.64 56.2367 147.64C55.9501 147.64 55.6834 147.71 55.4367 147.85C55.1901 147.99 54.9901 148.2 54.8367 148.48C54.6834 148.76 54.6067 149.107 54.6067 149.52C54.6067 149.933 54.6834 150.28 54.8367 150.56C54.9901 150.84 55.1867 151.05 55.4267 151.19C55.6734 151.33 55.9367 151.4 56.2167 151.4ZM59.689 152V147.04H60.449L60.519 147.99C60.6723 147.663 60.9057 147.403 61.219 147.21C61.5323 147.017 61.919 146.92 62.379 146.92V147.8H62.149C61.8557 147.8 61.5857 147.853 61.339 147.96C61.0923 148.06 60.8957 148.233 60.749 148.48C60.6023 148.727 60.529 149.067 60.529 149.5V152H59.689ZM65.0361 152.12C64.4428 152.12 63.9494 151.97 63.5561 151.67C63.1628 151.37 62.9328 150.963 62.8661 150.45H63.7261C63.7794 150.71 63.9161 150.937 64.1361 151.13C64.3628 151.317 64.6661 151.41 65.0461 151.41C65.3994 151.41 65.6594 151.337 65.8261 151.19C65.9928 151.037 66.0761 150.857 66.0761 150.65C66.0761 150.35 65.9661 150.15 65.7461 150.05C65.5328 149.95 65.2294 149.86 64.8361 149.78C64.5694 149.727 64.3028 149.65 64.0361 149.55C63.7694 149.45 63.5461 149.31 63.3661 149.13C63.1861 148.943 63.0961 148.7 63.0961 148.4C63.0961 147.967 63.2561 147.613 63.5761 147.34C63.9028 147.06 64.3428 146.92 64.8961 146.92C65.4228 146.92 65.8528 147.053 66.1861 147.32C66.5261 147.58 66.7228 147.953 66.7761 148.44H65.9461C65.9128 148.187 65.8028 147.99 65.6161 147.85C65.4361 147.703 65.1928 147.63 64.8861 147.63C64.5861 147.63 64.3528 147.693 64.1861 147.82C64.0261 147.947 63.9461 148.113 63.9461 148.32C63.9461 148.52 64.0494 148.677 64.2561 148.79C64.4694 148.903 64.7561 149 65.1161 149.08C65.4228 149.147 65.7128 149.23 65.9861 149.33C66.2661 149.423 66.4928 149.567 66.6661 149.76C66.8461 149.947 66.9361 150.22 66.9361 150.58C66.9428 151.027 66.7728 151.397 66.4261 151.69C66.0861 151.977 65.6228 152.12 65.0361 152.12ZM72.3711 152C71.9178 152 71.5611 151.89 71.3011 151.67C71.0411 151.45 70.9111 151.053 70.9111 150.48V147.75H70.0511V147.04H70.9111L71.0211 145.85H71.7511V147.04H73.2111V147.75H71.7511V150.48C71.7511 150.793 71.8145 151.007 71.9411 151.12C72.0678 151.227 72.2911 151.28 72.6111 151.28H73.1311V152H72.3711ZM74.0926 152V144.8H74.9326V147.89C75.0993 147.583 75.336 147.347 75.6426 147.18C75.9493 147.007 76.2826 146.92 76.6426 146.92C77.216 146.92 77.676 147.1 78.0226 147.46C78.3693 147.813 78.5426 148.36 78.5426 149.1V152H77.7126V149.19C77.7126 148.157 77.296 147.64 76.4626 147.64C76.0293 147.64 75.666 147.797 75.3726 148.11C75.0793 148.417 74.9326 148.857 74.9326 149.43V152H74.0926ZM80.1396 145.94C79.9729 145.94 79.8329 145.887 79.7196 145.78C79.6129 145.667 79.5596 145.527 79.5596 145.36C79.5596 145.2 79.6129 145.067 79.7196 144.96C79.8329 144.853 79.9729 144.8 80.1396 144.8C80.2996 144.8 80.4362 144.853 80.5496 144.96C80.6629 145.067 80.7196 145.2 80.7196 145.36C80.7196 145.527 80.6629 145.667 80.5496 145.78C80.4362 145.887 80.2996 145.94 80.1396 145.94ZM79.7196 152V147.04H80.5596V152H79.7196ZM83.7364 152.12C83.1431 152.12 82.6498 151.97 82.2564 151.67C81.8631 151.37 81.6331 150.963 81.5664 150.45H82.4264C82.4798 150.71 82.6164 150.937 82.8364 151.13C83.0631 151.317 83.3664 151.41 83.7464 151.41C84.0998 151.41 84.3598 151.337 84.5264 151.19C84.6931 151.037 84.7764 150.857 84.7764 150.65C84.7764 150.35 84.6664 150.15 84.4464 150.05C84.2331 149.95 83.9298 149.86 83.5364 149.78C83.2698 149.727 83.0031 149.65 82.7364 149.55C82.4698 149.45 82.2464 149.31 82.0664 149.13C81.8864 148.943 81.7964 148.7 81.7964 148.4C81.7964 147.967 81.9564 147.613 82.2764 147.34C82.6031 147.06 83.0431 146.92 83.5964 146.92C84.1231 146.92 84.5531 147.053 84.8864 147.32C85.2264 147.58 85.4231 147.953 85.4764 148.44H84.6464C84.6131 148.187 84.5031 147.99 84.3164 147.85C84.1364 147.703 83.8931 147.63 83.5864 147.63C83.2864 147.63 83.0531 147.693 82.8864 147.82C82.7264 147.947 82.6464 148.113 82.6464 148.32C82.6464 148.52 82.7498 148.677 82.9564 148.79C83.1698 148.903 83.4564 149 83.8164 149.08C84.1231 149.147 84.4131 149.23 84.6864 149.33C84.9664 149.423 85.1931 149.567 85.3664 149.76C85.5464 149.947 85.6364 150.22 85.6364 150.58C85.6431 151.027 85.4731 151.397 85.1264 151.69C84.7864 151.977 84.3231 152.12 83.7364 152.12ZM89.6515 154.2L90.8815 151.52H90.5915L88.6215 147.04H89.5315L91.1715 150.9L92.9115 147.04H93.7815L90.5315 154.2H89.6515ZM96.2437 152.12C95.7703 152.12 95.3503 152.013 94.9837 151.8C94.617 151.58 94.327 151.277 94.1137 150.89C93.907 150.503 93.8037 150.047 93.8037 149.52C93.8037 149 93.907 148.547 94.1137 148.16C94.3203 147.767 94.607 147.463 94.9737 147.25C95.347 147.03 95.777 146.92 96.2637 146.92C96.7437 146.92 97.157 147.03 97.5037 147.25C97.857 147.463 98.127 147.747 98.3137 148.1C98.5003 148.453 98.5937 148.833 98.5937 149.24C98.5937 149.313 98.5903 149.387 98.5837 149.46C98.5837 149.533 98.5837 149.617 98.5837 149.71H94.6337C94.6537 150.09 94.7403 150.407 94.8937 150.66C95.0537 150.907 95.2503 151.093 95.4837 151.22C95.7237 151.347 95.977 151.41 96.2437 151.41C96.5903 151.41 96.8803 151.33 97.1137 151.17C97.347 151.01 97.517 150.793 97.6237 150.52H98.4537C98.3203 150.98 98.0637 151.363 97.6837 151.67C97.3103 151.97 96.8303 152.12 96.2437 152.12ZM96.2437 147.63C95.8437 147.63 95.487 147.753 95.1737 148C94.867 148.24 94.6903 148.593 94.6437 149.06H97.7637C97.7437 148.613 97.5903 148.263 97.3037 148.01C97.017 147.757 96.6637 147.63 96.2437 147.63ZM101.171 152.12C100.758 152.12 100.415 152.05 100.141 151.91C99.868 151.77 99.6646 151.583 99.5313 151.35C99.398 151.117 99.3313 150.863 99.3313 150.59C99.3313 150.083 99.5246 149.693 99.9113 149.42C100.298 149.147 100.825 149.01 101.491 149.01H102.831V148.95C102.831 148.517 102.718 148.19 102.491 147.97C102.265 147.743 101.961 147.63 101.581 147.63C101.255 147.63 100.971 147.713 100.731 147.88C100.498 148.04 100.351 148.277 100.291 148.59H99.4313C99.4646 148.23 99.5846 147.927 99.7913 147.68C100.005 147.433 100.268 147.247 100.581 147.12C100.895 146.987 101.228 146.92 101.581 146.92C102.275 146.92 102.795 147.107 103.141 147.48C103.495 147.847 103.671 148.337 103.671 148.95V152H102.921L102.871 151.11C102.731 151.39 102.525 151.63 102.251 151.83C101.985 152.023 101.625 152.12 101.171 152.12ZM101.301 151.41C101.621 151.41 101.895 151.327 102.121 151.16C102.355 150.993 102.531 150.777 102.651 150.51C102.771 150.243 102.831 149.963 102.831 149.67V149.66H101.561C101.068 149.66 100.718 149.747 100.511 149.92C100.311 150.087 100.211 150.297 100.211 150.55C100.211 150.81 100.305 151.02 100.491 151.18C100.685 151.333 100.955 151.41 101.301 151.41ZM104.746 152V147.04H105.506L105.576 147.99C105.729 147.663 105.962 147.403 106.276 147.21C106.589 147.017 106.976 146.92 107.436 146.92V147.8H107.206C106.912 147.8 106.642 147.853 106.396 147.96C106.149 148.06 105.952 148.233 105.806 148.48C105.659 148.727 105.586 149.067 105.586 149.5V152H104.746Z" fill="#8F92A1"/>
<path d="M37.96 140.305V139.15C36.99 139.04 36.2 138.7 35.59 138.13C34.98 137.56 34.665 136.795 34.645 135.835H36.67C36.69 136.235 36.81 136.585 37.03 136.885C37.26 137.185 37.57 137.39 37.96 137.5V134.335C37.87 134.305 37.775 134.275 37.675 134.245C37.585 134.215 37.49 134.185 37.39 134.155C36.58 133.875 35.96 133.515 35.53 133.075C35.11 132.635 34.9 132.05 34.9 131.32C34.89 130.46 35.17 129.77 35.74 129.25C36.31 128.72 37.05 128.415 37.96 128.335V127.12H38.965V128.35C39.865 128.44 40.59 128.755 41.14 129.295C41.7 129.825 41.995 130.51 42.025 131.35H39.97C39.96 131.06 39.865 130.795 39.685 130.555C39.515 130.305 39.275 130.13 38.965 130.03V132.82C39.045 132.85 39.125 132.88 39.205 132.91C39.285 132.93 39.365 132.955 39.445 132.985C39.965 133.165 40.44 133.375 40.87 133.615C41.3 133.855 41.645 134.175 41.905 134.575C42.165 134.965 42.295 135.47 42.295 136.09C42.295 136.61 42.165 137.095 41.905 137.545C41.655 137.995 41.28 138.37 40.78 138.67C40.29 138.96 39.685 139.125 38.965 139.165V140.305H37.96ZM36.91 131.185C36.91 131.505 37.005 131.765 37.195 131.965C37.385 132.155 37.64 132.32 37.96 132.46V129.97C37.65 130.03 37.395 130.165 37.195 130.375C37.005 130.585 36.91 130.855 36.91 131.185ZM40.255 136.225C40.255 135.825 40.135 135.51 39.895 135.28C39.655 135.05 39.345 134.855 38.965 134.695V137.545C39.365 137.485 39.68 137.34 39.91 137.11C40.14 136.88 40.255 136.585 40.255 136.225ZM43.7152 139V137.605C44.3552 137.075 44.9752 136.55 45.5752 136.03C46.1852 135.51 46.7252 134.995 47.1952 134.485C47.6752 133.975 48.0552 133.48 48.3352 133C48.6252 132.51 48.7702 132.035 48.7702 131.575C48.7702 131.145 48.6502 130.765 48.4102 130.435C48.1802 130.105 47.7952 129.94 47.2552 129.94C46.7052 129.94 46.2902 130.12 46.0102 130.48C45.7302 130.84 45.5902 131.275 45.5902 131.785H43.7302C43.7502 131.015 43.9202 130.375 44.2402 129.865C44.5602 129.345 44.9852 128.96 45.5152 128.71C46.0452 128.45 46.6402 128.32 47.3002 128.32C48.3702 128.32 49.2002 128.615 49.7902 129.205C50.3902 129.785 50.6902 130.54 50.6902 131.47C50.6902 132.05 50.5552 132.615 50.2852 133.165C50.0252 133.715 49.6802 134.245 49.2502 134.755C48.8202 135.265 48.3552 135.745 47.8552 136.195C47.3552 136.635 46.8702 137.045 46.4002 137.425H50.9452V139H43.7152ZM53.6795 139V130.69L51.9545 131.095V129.625L54.4895 128.5H55.6745V139H53.6795ZM58.4904 139.105C58.1404 139.105 57.8504 138.995 57.6204 138.775C57.4004 138.555 57.2904 138.29 57.2904 137.98C57.2904 137.66 57.4004 137.39 57.6204 137.17C57.8504 136.95 58.1404 136.84 58.4904 136.84C58.8404 136.84 59.1254 136.95 59.3454 137.17C59.5754 137.39 59.6904 137.66 59.6904 137.98C59.6904 138.29 59.5754 138.555 59.3454 138.775C59.1254 138.995 58.8404 139.105 58.4904 139.105ZM61.0589 139V137.605C61.6989 137.075 62.3189 136.55 62.9189 136.03C63.5289 135.51 64.0689 134.995 64.5389 134.485C65.0189 133.975 65.3989 133.48 65.6789 133C65.9689 132.51 66.1139 132.035 66.1139 131.575C66.1139 131.145 65.9939 130.765 65.7539 130.435C65.5239 130.105 65.1389 129.94 64.5989 129.94C64.0489 129.94 63.6339 130.12 63.3539 130.48C63.0739 130.84 62.9339 131.275 62.9339 131.785H61.0739C61.0939 131.015 61.2639 130.375 61.5839 129.865C61.9039 129.345 62.3289 128.96 62.8589 128.71C63.3889 128.45 63.9839 128.32 64.6439 128.32C65.7139 128.32 66.5439 128.615 67.1339 129.205C67.7339 129.785 68.0339 130.54 68.0339 131.47C68.0339 132.05 67.8989 132.615 67.6289 133.165C67.3689 133.715 67.0239 134.245 66.5939 134.755C66.1639 135.265 65.6989 135.745 65.1989 136.195C64.6989 136.635 64.2139 137.045 63.7439 137.425H68.2889V139H61.0589ZM69.8833 139V128.5H71.8033V132.745L75.6883 128.5H78.0583L74.1883 132.67L78.1633 139H75.8083L72.8083 134.14L71.8033 135.235V139H69.8833Z" fill="#272835"/>
<rect x="44" y="25" width="1" height="90" fill="#EAEEFD"/>
<rect x="84" y="25" width="1" height="90" fill="#EAEEFD"/>
<rect x="124" y="25" width="1" height="90" fill="#EAEEFD"/>
<rect x="164" y="25" width="1" height="90" fill="#EAEEFD"/>
<rect x="204" y="25" width="1" height="90" fill="#EAEEFD"/>
<rect x="244" y="25" width="1" height="90" fill="#EAEEFD"/>
<rect x="284" y="25" width="1" height="90" fill="#EAEEFD"/>
<g filter="url(#filter0_d)">
<path d="M46 113L61.0959 106.897C66.4371 104.738 70.5878 100.381 72.4848 94.9407L74.138 90.2001C79.6877 74.2856 101.282 72.0411 110.113 86.3968V86.3968C110.702 87.3538 111.372 88.2632 112.113 89.108L121.446 99.7506C127.518 106.675 138.362 106.464 144.161 99.3094L145.804 97.2823C151.924 89.7312 163.827 91.1493 168.002 99.9267V99.9267C172.513 109.412 185.753 110.096 191.218 101.127L198.5 89.1756L206.867 72.9895C212.102 62.863 226.283 62.0688 232.616 71.5476L234.55 74.4418C239.058 81.19 248.748 81.8062 254.075 75.6834V75.6834C258.67 70.4018 266.739 70.0095 271.824 74.8204L287 89.1756" stroke="#FF8831" stroke-width="3" stroke-linecap="round" stroke-linejoin="round"/>
</g>
<g filter="url(#filter1_d)">
<circle cx="156" cy="93" r="3" fill="white"/>
<circle cx="156" cy="93" r="4.5" stroke="#FF8831" stroke-width="3"/>
</g>
<path d="M46 113L60.3596 94.314C64.6301 88.7567 71.6424 86.0435 78.5413 87.2791L80.3991 87.6119C85.8067 88.5804 91.3222 86.608 94.8894 82.4302L96.2292 80.8609C102.944 72.9967 115.551 74.7559 119.857 84.1577L120.216 84.9426C125.175 95.7713 140.614 95.6191 145.358 84.6948L147.719 79.2601C150.402 73.0823 158.427 71.4813 163.275 76.1565V76.1565C168.642 81.3317 177.6 78.7287 179.358 71.4833L187.84 36.5233C190.687 24.7873 206.826 23.4107 211.62 34.4949L213.029 37.7536C215.735 44.0108 223.767 45.7936 228.866 41.2692V41.2692C234.151 36.5801 242.5 38.6913 244.92 45.3291L255.392 74.0466C259.089 84.1852 269.099 90.6093 279.856 89.7478L287 89.1756" stroke="#3D41D7" stroke-width="3" stroke-linecap="round" stroke-linejoin="round"/>
<g filter="url(#filter2_d)">
<circle cx="156" cy="74" r="3" fill="white"/>
<circle cx="156" cy="74" r="4.5" stroke="#5243AA" stroke-width="3"/>
</g>
<defs>
<filter id="filter0_d" x="0.499603" y="19.3926" width="332" height="139.108" filterUnits="userSpaceOnUse" color-interpolation-filters="sRGB">
<feFlood flood-opacity="0" result="BackgroundImageFix"/>
<feColorMatrix in="SourceAlpha" type="matrix" values="0 0 0 0 0 0 0 0 0 0 0 0 0 0 0 0 0 0 127 0"/>
<feOffset/>
<feGaussianBlur stdDeviation="22"/>
<feColorMatrix type="matrix" values="0 0 0 0 0.1325 0 0 0 0 0.145427 0 0 0 0 0.6625 0 0 0 0.1 0"/>
<feBlend mode="normal" in2="BackgroundImageFix" result="effect1_dropShadow"/>
<feBlend mode="normal" in="SourceGraphic" in2="effect1_dropShadow" result="shape"/>
</filter>
<filter id="filter1_d" x="146" y="87" width="20" height="20" filterUnits="userSpaceOnUse" color-interpolation-filters="sRGB">
<feFlood flood-opacity="0" result="BackgroundImageFix"/>
<feColorMatrix in="SourceAlpha" type="matrix" values="0 0 0 0 0 0 0 0 0 0 0 0 0 0 0 0 0 0 127 0"/>
<feOffset dy="4"/>
<feGaussianBlur stdDeviation="2"/>
<feColorMatrix type="matrix" values="0 0 0 0 0 0 0 0 0 0 0 0 0 0 0 0 0 0 0.25 0"/>
<feBlend mode="normal" in2="BackgroundImageFix" result="effect1_dropShadow"/>
<feBlend mode="normal" in="SourceGraphic" in2="effect1_dropShadow" result="shape"/>
</filter>
<filter id="filter2_d" x="146" y="68" width="20" height="20" filterUnits="userSpaceOnUse" color-interpolation-filters="sRGB">
<feFlood flood-opacity="0" result="BackgroundImageFix"/>
<feColorMatrix in="SourceAlpha" type="matrix" values="0 0 0 0 0 0 0 0 0 0 0 0 0 0 0 0 0 0 127 0"/>
<feOffset dy="4"/>
<feGaussianBlur stdDeviation="2"/>
<feColorMatrix type="matrix" values="0 0 0 0 0 0 0 0 0 0 0 0 0 0 0 0 0 0 0.25 0"/>
<feBlend mode="normal" in2="BackgroundImageFix" result="effect1_dropShadow"/>
<feBlend mode="normal" in="SourceGraphic" in2="effect1_dropShadow" result="shape"/>
</filter>
</defs>
</svg>
