<svg width="121" height="48" viewBox="0 0 121 48" fill="none" xmlns="http://www.w3.org/2000/svg">
<rect width="48" height="48" rx="10" fill="#1976D2"/>
<g clip-path="url(#clip0)">
<path d="M17.5906 17.8125H11.9999V35H17.5906V17.8125Z" fill="white"/>
<path d="M32.8187 18.0141C32.7593 17.9953 32.7031 17.975 32.6406 17.9578C32.5656 17.9407 32.4906 17.9266 32.414 17.9141C32.1171 17.8547 31.7921 17.8125 31.4109 17.8125C28.1515 17.8125 26.0843 20.1828 25.4031 21.0985V17.8125H19.8124V35H25.4031V25.625C25.4031 25.625 29.6281 19.7407 31.4109 24.0625C31.4109 27.9203 31.4109 35 31.4109 35H36.9999V23.4016C36.9999 20.8047 35.2203 18.6407 32.8187 18.0141Z" fill="white"/>
<path d="M14.7343 15.4688C16.2444 15.4688 17.4686 14.2445 17.4686 12.7344C17.4686 11.2242 16.2444 10 14.7343 10C13.2241 10 11.9999 11.2242 11.9999 12.7344C11.9999 14.2445 13.2241 15.4688 14.7343 15.4688Z" fill="white"/>
</g>
<path d="M64.392 19V7.64H66.328V17.272H71.592V19H64.392ZM74.2359 9.688C74.0012 9.92267 73.7185 10.04 73.3879 10.04C73.0572 10.04 72.7745 9.92267 72.5399 9.688C72.3052 9.45333 72.1879 9.17067 72.1879 8.84C72.1879 8.52 72.3052 8.24267 72.5399 8.008C72.7745 7.77333 73.0572 7.656 73.3879 7.656C73.7185 7.656 74.0012 7.77333 74.2359 8.008C74.4812 8.24267 74.6039 8.52 74.6039 8.84C74.6039 9.17067 74.4812 9.45333 74.2359 9.688ZM72.4919 19V11.192H74.2839V19H72.4919ZM80.2113 11.08C81.1073 11.08 81.8059 11.352 82.3073 11.896C82.8193 12.44 83.0753 13.2773 83.0753 14.408V19H81.2833V14.872C81.2833 14.0827 81.1393 13.5227 80.8513 13.192C80.5739 12.8613 80.1526 12.696 79.5873 12.696C78.9686 12.696 78.4779 12.904 78.1153 13.32C77.7526 13.736 77.5712 14.3227 77.5712 15.08V19H75.7793V11.192H77.5712V12.28H77.5872C78.2593 11.48 79.1339 11.08 80.2113 11.08ZM87.4236 15.72H87.3916L86.0956 17.16V19H84.3036V7.224H86.0956V14.76L89.2956 11.192H91.4236L88.6076 14.344L91.4716 19H89.4556L87.4236 15.72ZM98.6046 15C98.6046 15.192 98.5886 15.432 98.5566 15.72H92.8606C92.978 16.2747 93.234 16.712 93.6286 17.032C94.0233 17.3413 94.5086 17.496 95.0846 17.496C95.8953 17.496 96.546 17.192 97.0366 16.584L98.2846 17.656C97.5273 18.6373 96.4286 19.128 94.9886 19.128C93.8366 19.128 92.882 18.76 92.1246 18.024C91.378 17.2773 91.0046 16.3013 91.0046 15.096C91.0046 13.912 91.362 12.9467 92.0766 12.2C92.802 11.4533 93.714 11.08 94.8126 11.08C95.954 11.08 96.8713 11.448 97.5646 12.184C98.258 12.9093 98.6046 13.848 98.6046 15ZM96.1406 13.128C95.8206 12.84 95.41 12.696 94.9086 12.696C94.4073 12.696 93.9753 12.8347 93.6126 13.112C93.2606 13.3893 93.0206 13.7787 92.8926 14.28H96.7966C96.6793 13.7893 96.4606 13.4053 96.1406 13.128ZM105.301 7.224H107.077V19H105.365V17.96H105.333C104.736 18.7387 103.893 19.128 102.805 19.128C101.706 19.128 100.8 18.76 100.085 18.024C99.3703 17.288 99.013 16.3227 99.013 15.128C99.013 13.9547 99.3703 12.9893 100.085 12.232C100.81 11.464 101.712 11.08 102.789 11.08C103.834 11.08 104.661 11.432 105.269 12.136H105.301V7.224ZM101.461 16.84C101.888 17.2773 102.426 17.496 103.077 17.496C103.728 17.496 104.272 17.2773 104.709 16.84C105.146 16.4027 105.365 15.8373 105.365 15.144C105.365 14.44 105.152 13.8587 104.725 13.4C104.298 12.9307 103.754 12.696 103.093 12.696C102.453 12.696 101.914 12.92 101.477 13.368C101.05 13.816 100.837 14.408 100.837 15.144C100.837 15.8373 101.045 16.4027 101.461 16.84ZM108.743 19V7.64H110.679V19H108.743ZM116.786 11.08C117.682 11.08 118.381 11.352 118.882 11.896C119.394 12.44 119.65 13.2773 119.65 14.408V19H117.858V14.872C117.858 14.0827 117.714 13.5227 117.426 13.192C117.149 12.8613 116.728 12.696 116.162 12.696C115.544 12.696 115.053 12.904 114.69 13.32C114.328 13.736 114.146 14.3227 114.146 15.08V19H112.354V11.192H114.146V12.28H114.162C114.834 11.48 115.709 11.08 116.786 11.08Z" fill="#272835"/>
<path d="M63.87 34V26.9H68.51V27.98H65.08V30.1H67.96V31.19H65.08V34H63.87ZM73.4773 34L73.0373 33.45H73.0173C72.5373 33.87 71.9173 34.08 71.1573 34.08C70.5039 34.08 69.9539 33.88 69.5073 33.48C69.0673 33.08 68.8473 32.5633 68.8473 31.93C68.8473 31.0433 69.2806 30.3467 70.1473 29.84L69.3573 28.85C69.4306 28.2633 69.6706 27.78 70.0773 27.4C70.4839 27.0133 70.9739 26.82 71.5473 26.82C72.5406 26.82 73.2773 27.2833 73.7573 28.21L72.7973 28.58C72.5173 28.08 72.1339 27.8267 71.6473 27.82C71.3339 27.82 71.0839 27.9033 70.8973 28.07C70.7173 28.2367 70.5973 28.4433 70.5373 28.69L73.0573 31.83H73.0673C73.2539 31.45 73.3473 31.05 73.3473 30.63L74.4373 30.61C74.4373 31.4433 74.2273 32.16 73.8073 32.76V32.77L74.7973 34H73.4773ZM70.0173 31.86C70.0173 32.2 70.1339 32.4767 70.3673 32.69C70.6006 32.9033 70.9039 33.01 71.2773 33.01C71.6973 33.01 72.0673 32.8933 72.3873 32.66V32.64L70.7973 30.65C70.2773 30.9233 70.0173 31.3267 70.0173 31.86ZM79.0465 30.25C79.4732 30.3567 79.8132 30.5667 80.0665 30.88C80.3265 31.1867 80.4565 31.5767 80.4565 32.05C80.4565 32.6367 80.2565 33.11 79.8565 33.47C79.4632 33.8233 78.8865 34 78.1265 34H75.3165V26.9H77.7865C78.5265 26.9 79.0965 27.0467 79.4965 27.34C79.8965 27.6267 80.0965 28.0567 80.0965 28.63C80.0965 28.9833 80.0065 29.3067 79.8265 29.6C79.6532 29.8867 79.3932 30.1 79.0465 30.24V30.25ZM76.5265 27.98V29.84H77.6765C78.0098 29.84 78.2898 29.7633 78.5165 29.61C78.7498 29.45 78.8665 29.2133 78.8665 28.9C78.8665 28.28 78.4298 27.9733 77.5565 27.98H76.5265ZM77.7665 32.92C78.2065 32.9133 78.5532 32.8267 78.8065 32.66C79.0665 32.4933 79.1965 32.2467 79.1965 31.92C79.1965 31.6 79.0732 31.3467 78.8265 31.16C78.5865 30.9733 78.2398 30.88 77.7865 30.88H76.5265V32.92H77.7665ZM83.3166 34V26.9H84.5266V34H83.3166ZM88.3438 29.05C88.9038 29.05 89.3404 29.22 89.6538 29.56C89.9738 29.9 90.1338 30.4233 90.1338 31.13V34H89.0138V31.42C89.0138 30.9267 88.9238 30.5767 88.7438 30.37C88.5704 30.1633 88.3071 30.06 87.9538 30.06C87.5671 30.06 87.2604 30.19 87.0338 30.45C86.8071 30.71 86.6938 31.0767 86.6938 31.55V34H85.5738V29.12H86.6938V29.8H86.7038C87.1238 29.3 87.6704 29.05 88.3438 29.05ZM94.5315 26.64H95.6415V34H94.5715V33.35H94.5515C94.1782 33.8367 93.6515 34.08 92.9715 34.08C92.2848 34.08 91.7182 33.85 91.2715 33.39C90.8248 32.93 90.6015 32.3267 90.6015 31.58C90.6015 30.8467 90.8248 30.2433 91.2715 29.77C91.7248 29.29 92.2882 29.05 92.9615 29.05C93.6148 29.05 94.1315 29.27 94.5115 29.71H94.5315V26.64ZM92.1315 32.65C92.3982 32.9233 92.7348 33.06 93.1415 33.06C93.5482 33.06 93.8882 32.9233 94.1615 32.65C94.4348 32.3767 94.5715 32.0233 94.5715 31.59C94.5715 31.15 94.4382 30.7867 94.1715 30.5C93.9048 30.2067 93.5648 30.06 93.1515 30.06C92.7515 30.06 92.4148 30.2 92.1415 30.48C91.8748 30.76 91.7415 31.13 91.7415 31.59C91.7415 32.0233 91.8715 32.3767 92.1315 32.65ZM99.7427 29.12H100.863V34H99.7427V33.36C99.3427 33.84 98.8393 34.08 98.2327 34.08C97.0127 34.08 96.4027 33.4167 96.4027 32.09V29.12H97.5227V31.79C97.5227 32.2633 97.596 32.5933 97.7427 32.78C97.896 32.9667 98.146 33.06 98.4927 33.06C98.8393 33.06 99.1327 32.92 99.3727 32.64C99.6193 32.3533 99.7427 31.96 99.7427 31.46V29.12ZM103.244 34.08C102.464 34.08 101.807 33.8433 101.274 33.37L101.834 32.53C102.221 32.91 102.691 33.1 103.244 33.1C103.457 33.1 103.624 33.0567 103.744 32.97C103.864 32.8833 103.924 32.7667 103.924 32.62C103.924 32.5067 103.854 32.4133 103.714 32.34C103.581 32.26 103.331 32.1567 102.964 32.03C102.484 31.8633 102.114 31.6633 101.854 31.43C101.601 31.1967 101.474 30.8633 101.474 30.43C101.474 30.03 101.634 29.7 101.954 29.44C102.281 29.18 102.694 29.05 103.194 29.05C103.841 29.05 104.414 29.2533 104.914 29.66L104.354 30.54C103.987 30.1933 103.581 30.02 103.134 30.02C103.001 30.02 102.877 30.0567 102.764 30.13C102.657 30.1967 102.604 30.3 102.604 30.44C102.604 30.64 102.861 30.8367 103.374 31.03C104.007 31.2767 104.404 31.4567 104.564 31.57C104.897 31.8033 105.064 32.1467 105.064 32.6C105.064 33.0333 104.907 33.39 104.594 33.67C104.287 33.9433 103.837 34.08 103.244 34.08ZM107.026 34.08C106.599 34.08 106.266 33.9433 106.026 33.67C105.786 33.3967 105.666 32.9933 105.666 32.46V30.07H105.066V29.12H105.666V27.5L106.786 27.38V29.12H108.216V30.07H106.786V32.35C106.786 32.5967 106.823 32.7733 106.896 32.88C106.969 32.98 107.089 33.03 107.256 33.03C107.476 33.03 107.716 32.96 107.976 32.82L108.266 33.79C107.913 33.9833 107.499 34.08 107.026 34.08ZM111.278 29.05H111.418V30.3C111.245 30.2867 111.132 30.28 111.078 30.28C110.665 30.28 110.338 30.4133 110.098 30.68C109.865 30.94 109.748 31.2767 109.748 31.69V34H108.628V29.12H109.748V29.86H109.758C110.152 29.32 110.658 29.05 111.278 29.05ZM114.999 29.12H116.169L113.489 35.98H112.309L113.189 33.72L111.209 29.12H112.389L113.739 32.42L114.999 29.12Z" fill="#8F92A1"/>
<defs>
<clipPath id="clip0">
<rect width="25" height="25" fill="white" transform="translate(12 10)"/>
</clipPath>
</defs>
</svg>
