<svg width="122" height="48" viewBox="0 0 122 48" fill="none" xmlns="http://www.w3.org/2000/svg">
<rect width="48" height="48" rx="10" fill="#D32F2F"/>
<path d="M25.9518 8C16.8438 8 12 13.7959 12 20.1157C12 23.0466 13.6492 26.7015 16.2892 27.8607C16.6901 28.0402 16.9081 27.9638 16.9975 27.5946C17.0764 27.3141 17.4233 25.9631 17.5915 25.3258C17.6434 25.1216 17.6164 24.9442 17.4503 24.7524C16.5737 23.7458 15.8779 21.9122 15.8779 20.192C15.8779 15.7842 19.4069 11.5043 25.4117 11.5043C30.6044 11.5043 34.2372 14.854 34.2372 19.6454C34.2372 25.0597 31.3522 28.8054 27.603 28.8054C25.528 28.8054 23.9827 27.1883 24.4729 25.1876C25.0649 22.8053 26.2259 20.2436 26.2259 18.5254C26.2259 16.9847 25.3494 15.71 23.559 15.71C21.4466 15.71 19.733 17.787 19.733 20.5756C19.733 22.3474 20.3644 23.5437 20.3644 23.5437C20.3644 23.5437 18.2749 31.9261 17.8865 33.4916C17.2301 36.142 17.9758 40.4343 18.0402 40.8035C18.0796 41.0077 18.3102 41.0716 18.439 40.9046C18.6446 40.6364 21.1703 37.0578 21.8786 34.4713C22.1362 33.5287 23.1934 29.7067 23.1934 29.7067C23.8892 30.9546 25.8978 32.0003 28.0372 32.0003C34.4013 32.0003 39 26.4458 39 19.5526C38.9772 12.944 33.2818 8 25.9518 8Z" fill="white"/>
<path d="M64.392 19V7.64H68.504C69.8053 7.64 70.776 7.976 71.416 8.648C72.0667 9.30933 72.392 10.2 72.392 11.32C72.392 12.5147 72.024 13.4213 71.288 14.04C70.552 14.648 69.5493 14.952 68.28 14.952H66.328V19H64.392ZM66.328 13.208H68.088C68.856 13.208 69.432 13.0373 69.816 12.696C70.2 12.344 70.392 11.8747 70.392 11.288C70.392 10.68 70.2053 10.2107 69.832 9.88C69.4587 9.53867 68.9253 9.368 68.232 9.368H66.328V13.208ZM75.064 9.688C74.8293 9.92267 74.5467 10.04 74.216 10.04C73.8853 10.04 73.6027 9.92267 73.368 9.688C73.1333 9.45333 73.016 9.17067 73.016 8.84C73.016 8.52 73.1333 8.24267 73.368 8.008C73.6027 7.77333 73.8853 7.656 74.216 7.656C74.5467 7.656 74.8293 7.77333 75.064 8.008C75.3093 8.24267 75.432 8.52 75.432 8.84C75.432 9.17067 75.3093 9.45333 75.064 9.688ZM73.32 19V11.192H75.112V19H73.32ZM81.0394 11.08C81.9354 11.08 82.634 11.352 83.1354 11.896C83.6474 12.44 83.9034 13.2773 83.9034 14.408V19H82.1114V14.872C82.1114 14.0827 81.9674 13.5227 81.6794 13.192C81.402 12.8613 80.9807 12.696 80.4154 12.696C79.7967 12.696 79.306 12.904 78.9434 13.32C78.5807 13.736 78.3994 14.3227 78.3994 15.08V19H76.6074V11.192H78.3994V12.28H78.4154C79.0874 11.48 79.962 11.08 81.0394 11.08ZM87.4518 19.128C86.7691 19.128 86.2358 18.9093 85.8518 18.472C85.4678 18.0347 85.2758 17.3893 85.2758 16.536V12.712H84.3158V11.192H85.2758V8.6L87.0678 8.408V11.192H89.3558V12.712H87.0678V16.36C87.0678 16.7547 87.1264 17.0373 87.2438 17.208C87.3611 17.368 87.5531 17.448 87.8198 17.448C88.1718 17.448 88.5558 17.336 88.9718 17.112L89.4358 18.664C88.8704 18.9733 88.2091 19.128 87.4518 19.128ZM96.7765 15C96.7765 15.192 96.7605 15.432 96.7285 15.72H91.0325C91.1498 16.2747 91.4058 16.712 91.8005 17.032C92.1952 17.3413 92.6805 17.496 93.2565 17.496C94.0672 17.496 94.7178 17.192 95.2085 16.584L96.4565 17.656C95.6992 18.6373 94.6005 19.128 93.1605 19.128C92.0085 19.128 91.0538 18.76 90.2965 18.024C89.5498 17.2773 89.1765 16.3013 89.1765 15.096C89.1765 13.912 89.5338 12.9467 90.2485 12.2C90.9738 11.4533 91.8858 11.08 92.9845 11.08C94.1258 11.08 95.0432 11.448 95.7365 12.184C96.4298 12.9093 96.7765 13.848 96.7765 15ZM94.3125 13.128C93.9925 12.84 93.5818 12.696 93.0805 12.696C92.5792 12.696 92.1472 12.8347 91.7845 13.112C91.4325 13.3893 91.1925 13.7787 91.0645 14.28H94.9685C94.8512 13.7893 94.6325 13.4053 94.3125 13.128ZM101.905 11.08H102.129V13.08C101.852 13.0587 101.67 13.048 101.585 13.048C100.924 13.048 100.401 13.2613 100.017 13.688C99.6435 14.104 99.4569 14.6427 99.4569 15.304V19H97.6649V11.192H99.4569V12.376H99.4729C100.102 11.512 100.913 11.08 101.905 11.08ZM109.575 15C109.575 15.192 109.559 15.432 109.527 15.72H103.831C103.949 16.2747 104.205 16.712 104.599 17.032C104.994 17.3413 105.479 17.496 106.055 17.496C106.866 17.496 107.517 17.192 108.007 16.584L109.255 17.656C108.498 18.6373 107.399 19.128 105.959 19.128C104.807 19.128 103.853 18.76 103.095 18.024C102.349 17.2773 101.975 16.3013 101.975 15.096C101.975 13.912 102.333 12.9467 103.047 12.2C103.773 11.4533 104.685 11.08 105.783 11.08C106.925 11.08 107.842 11.448 108.535 12.184C109.229 12.9093 109.575 13.848 109.575 15ZM107.111 13.128C106.791 12.84 106.381 12.696 105.879 12.696C105.378 12.696 104.946 12.8347 104.583 13.112C104.231 13.3893 103.991 13.7787 103.863 14.28H107.767C107.65 13.7893 107.431 13.4053 107.111 13.128ZM112.96 19.128C111.712 19.128 110.661 18.7493 109.808 17.992L110.704 16.648C111.322 17.256 112.074 17.56 112.96 17.56C113.301 17.56 113.568 17.4907 113.76 17.352C113.952 17.2133 114.048 17.0267 114.048 16.792C114.048 16.6107 113.936 16.4613 113.712 16.344C113.498 16.216 113.098 16.0507 112.512 15.848C111.744 15.5813 111.152 15.2613 110.736 14.888C110.33 14.5147 110.128 13.9813 110.128 13.288C110.128 12.648 110.384 12.12 110.896 11.704C111.418 11.288 112.08 11.08 112.88 11.08C113.914 11.08 114.832 11.4053 115.632 12.056L114.736 13.464C114.149 12.9093 113.498 12.632 112.784 12.632C112.57 12.632 112.373 12.6907 112.192 12.808C112.021 12.9147 111.936 13.08 111.936 13.304C111.936 13.624 112.346 13.9387 113.168 14.248C114.181 14.6427 114.816 14.9307 115.072 15.112C115.605 15.4853 115.872 16.0347 115.872 16.76C115.872 17.4533 115.621 18.024 115.12 18.472C114.629 18.9093 113.909 19.128 112.96 19.128ZM119.011 19.128C118.328 19.128 117.795 18.9093 117.411 18.472C117.027 18.0347 116.835 17.3893 116.835 16.536V12.712H115.875V11.192H116.835V8.6L118.627 8.408V11.192H120.915V12.712H118.627V16.36C118.627 16.7547 118.686 17.0373 118.803 17.208C118.92 17.368 119.112 17.448 119.379 17.448C119.731 17.448 120.115 17.336 120.531 17.112L120.995 18.664C120.43 18.9733 119.768 19.128 119.011 19.128Z" fill="#272835"/>
<path d="M63.87 34V26.9H68.51V27.98H65.08V30.1H67.96V31.19H65.08V34H63.87ZM73.4773 34L73.0373 33.45H73.0173C72.5373 33.87 71.9173 34.08 71.1573 34.08C70.5039 34.08 69.9539 33.88 69.5073 33.48C69.0673 33.08 68.8473 32.5633 68.8473 31.93C68.8473 31.0433 69.2806 30.3467 70.1473 29.84L69.3573 28.85C69.4306 28.2633 69.6706 27.78 70.0773 27.4C70.4839 27.0133 70.9739 26.82 71.5473 26.82C72.5406 26.82 73.2773 27.2833 73.7573 28.21L72.7973 28.58C72.5173 28.08 72.1339 27.8267 71.6473 27.82C71.3339 27.82 71.0839 27.9033 70.8973 28.07C70.7173 28.2367 70.5973 28.4433 70.5373 28.69L73.0573 31.83H73.0673C73.2539 31.45 73.3473 31.05 73.3473 30.63L74.4373 30.61C74.4373 31.4433 74.2273 32.16 73.8073 32.76V32.77L74.7973 34H73.4773ZM70.0173 31.86C70.0173 32.2 70.1339 32.4767 70.3673 32.69C70.6006 32.9033 70.9039 33.01 71.2773 33.01C71.6973 33.01 72.0673 32.8933 72.3873 32.66V32.64L70.7973 30.65C70.2773 30.9233 70.0173 31.3267 70.0173 31.86ZM79.0465 30.25C79.4732 30.3567 79.8132 30.5667 80.0665 30.88C80.3265 31.1867 80.4565 31.5767 80.4565 32.05C80.4565 32.6367 80.2565 33.11 79.8565 33.47C79.4632 33.8233 78.8865 34 78.1265 34H75.3165V26.9H77.7865C78.5265 26.9 79.0965 27.0467 79.4965 27.34C79.8965 27.6267 80.0965 28.0567 80.0965 28.63C80.0965 28.9833 80.0065 29.3067 79.8265 29.6C79.6532 29.8867 79.3932 30.1 79.0465 30.24V30.25ZM76.5265 27.98V29.84H77.6765C78.0098 29.84 78.2898 29.7633 78.5165 29.61C78.7498 29.45 78.8665 29.2133 78.8665 28.9C78.8665 28.28 78.4298 27.9733 77.5565 27.98H76.5265ZM77.7665 32.92C78.2065 32.9133 78.5532 32.8267 78.8065 32.66C79.0665 32.4933 79.1965 32.2467 79.1965 31.92C79.1965 31.6 79.0732 31.3467 78.8265 31.16C78.5865 30.9733 78.2398 30.88 77.7865 30.88H76.5265V32.92H77.7665ZM83.3166 34V26.9H84.5266V34H83.3166ZM88.3438 29.05C88.9038 29.05 89.3404 29.22 89.6538 29.56C89.9738 29.9 90.1338 30.4233 90.1338 31.13V34H89.0138V31.42C89.0138 30.9267 88.9238 30.5767 88.7438 30.37C88.5704 30.1633 88.3071 30.06 87.9538 30.06C87.5671 30.06 87.2604 30.19 87.0338 30.45C86.8071 30.71 86.6938 31.0767 86.6938 31.55V34H85.5738V29.12H86.6938V29.8H86.7038C87.1238 29.3 87.6704 29.05 88.3438 29.05ZM94.5315 26.64H95.6415V34H94.5715V33.35H94.5515C94.1782 33.8367 93.6515 34.08 92.9715 34.08C92.2848 34.08 91.7182 33.85 91.2715 33.39C90.8248 32.93 90.6015 32.3267 90.6015 31.58C90.6015 30.8467 90.8248 30.2433 91.2715 29.77C91.7248 29.29 92.2882 29.05 92.9615 29.05C93.6148 29.05 94.1315 29.27 94.5115 29.71H94.5315V26.64ZM92.1315 32.65C92.3982 32.9233 92.7348 33.06 93.1415 33.06C93.5482 33.06 93.8882 32.9233 94.1615 32.65C94.4348 32.3767 94.5715 32.0233 94.5715 31.59C94.5715 31.15 94.4382 30.7867 94.1715 30.5C93.9048 30.2067 93.5648 30.06 93.1515 30.06C92.7515 30.06 92.4148 30.2 92.1415 30.48C91.8748 30.76 91.7415 31.13 91.7415 31.59C91.7415 32.0233 91.8715 32.3767 92.1315 32.65ZM99.7427 29.12H100.863V34H99.7427V33.36C99.3427 33.84 98.8393 34.08 98.2327 34.08C97.0127 34.08 96.4027 33.4167 96.4027 32.09V29.12H97.5227V31.79C97.5227 32.2633 97.596 32.5933 97.7427 32.78C97.896 32.9667 98.146 33.06 98.4927 33.06C98.8393 33.06 99.1327 32.92 99.3727 32.64C99.6193 32.3533 99.7427 31.96 99.7427 31.46V29.12ZM103.244 34.08C102.464 34.08 101.807 33.8433 101.274 33.37L101.834 32.53C102.221 32.91 102.691 33.1 103.244 33.1C103.457 33.1 103.624 33.0567 103.744 32.97C103.864 32.8833 103.924 32.7667 103.924 32.62C103.924 32.5067 103.854 32.4133 103.714 32.34C103.581 32.26 103.331 32.1567 102.964 32.03C102.484 31.8633 102.114 31.6633 101.854 31.43C101.601 31.1967 101.474 30.8633 101.474 30.43C101.474 30.03 101.634 29.7 101.954 29.44C102.281 29.18 102.694 29.05 103.194 29.05C103.841 29.05 104.414 29.2533 104.914 29.66L104.354 30.54C103.987 30.1933 103.581 30.02 103.134 30.02C103.001 30.02 102.877 30.0567 102.764 30.13C102.657 30.1967 102.604 30.3 102.604 30.44C102.604 30.64 102.861 30.8367 103.374 31.03C104.007 31.2767 104.404 31.4567 104.564 31.57C104.897 31.8033 105.064 32.1467 105.064 32.6C105.064 33.0333 104.907 33.39 104.594 33.67C104.287 33.9433 103.837 34.08 103.244 34.08ZM107.026 34.08C106.599 34.08 106.266 33.9433 106.026 33.67C105.786 33.3967 105.666 32.9933 105.666 32.46V30.07H105.066V29.12H105.666V27.5L106.786 27.38V29.12H108.216V30.07H106.786V32.35C106.786 32.5967 106.823 32.7733 106.896 32.88C106.969 32.98 107.089 33.03 107.256 33.03C107.476 33.03 107.716 32.96 107.976 32.82L108.266 33.79C107.913 33.9833 107.499 34.08 107.026 34.08ZM111.278 29.05H111.418V30.3C111.245 30.2867 111.132 30.28 111.078 30.28C110.665 30.28 110.338 30.4133 110.098 30.68C109.865 30.94 109.748 31.2767 109.748 31.69V34H108.628V29.12H109.748V29.86H109.758C110.152 29.32 110.658 29.05 111.278 29.05ZM114.999 29.12H116.169L113.489 35.98H112.309L113.189 33.72L111.209 29.12H112.389L113.739 32.42L114.999 29.12Z" fill="#8F92A1"/>
</svg>
