<svg width="117" height="48" viewBox="0 0 117 48" fill="none" xmlns="http://www.w3.org/2000/svg">
<rect width="48" height="48" rx="10" fill="#299EE8"/>
<path d="M39 15.7228C37.9216 16.1846 36.7724 16.4907 35.5744 16.6393C36.8069 15.921 37.7476 14.7922 38.1898 13.4317C37.0407 14.1005 35.7719 14.5728 34.4198 14.8365C33.3287 13.7024 31.7736 13 30.0771 13C26.7856 13 24.1357 15.6078 24.1357 18.8048C24.1357 19.2648 24.1756 19.7072 24.2734 20.1282C19.3308 19.8929 14.9572 17.5805 12.0191 14.058C11.5062 14.9267 11.2053 15.921 11.2053 16.9914C11.2053 19.0012 12.2656 20.7828 13.8461 21.8143C12.8909 21.7966 11.9539 21.5259 11.16 21.0995C11.16 21.1172 11.16 21.1402 11.16 21.1632C11.16 23.9834 13.2208 26.3258 15.9232 26.8655C15.4393 26.9946 14.9119 27.0565 14.3645 27.0565C13.9839 27.0565 13.5996 27.0353 13.2389 26.9575C14.0092 29.2557 16.1951 30.9453 18.7943 31.0002C16.7715 32.5447 14.2032 33.4753 11.4228 33.4753C10.9353 33.4753 10.4676 33.4541 10 33.3957C12.6336 35.0535 15.7547 36 19.1205 36C30.0607 36 36.042 27.1538 36.042 19.486C36.042 19.2295 36.0329 18.9818 36.0203 18.7358C37.2002 17.9185 38.1916 16.8976 39 15.7228Z" fill="white"/>
<path d="M66.728 19V9.368H63.512V7.64H71.928V9.368H68.664V19H66.728ZM80.184 11.192H82.008L79.32 19H77.672L76.2 14.088H76.184L74.712 19H73.096L70.408 11.192H72.232L73.912 16.328H73.944L75.448 11.192H76.952L78.472 16.344H78.504L80.184 11.192ZM84.4478 9.688C84.2131 9.92267 83.9304 10.04 83.5998 10.04C83.2691 10.04 82.9864 9.92267 82.7517 9.688C82.5171 9.45333 82.3997 9.17067 82.3997 8.84C82.3997 8.52 82.5171 8.24267 82.7517 8.008C82.9864 7.77333 83.2691 7.656 83.5998 7.656C83.9304 7.656 84.2131 7.77333 84.4478 8.008C84.6931 8.24267 84.8158 8.52 84.8158 8.84C84.8158 9.17067 84.6931 9.45333 84.4478 9.688ZM82.7038 19V11.192H84.4957V19H82.7038ZM88.2486 19.128C87.566 19.128 87.0326 18.9093 86.6486 18.472C86.2646 18.0347 86.0726 17.3893 86.0726 16.536V12.712H85.1126V11.192H86.0726V8.6L87.8646 8.408V11.192H90.1526V12.712H87.8646V16.36C87.8646 16.7547 87.9233 17.0373 88.0406 17.208C88.158 17.368 88.35 17.448 88.6166 17.448C88.9686 17.448 89.3526 17.336 89.7686 17.112L90.2326 18.664C89.6673 18.9733 89.006 19.128 88.2486 19.128ZM93.2418 19.128C92.5591 19.128 92.0258 18.9093 91.6417 18.472C91.2577 18.0347 91.0657 17.3893 91.0657 16.536V12.712H90.1057V11.192H91.0657V8.6L92.8577 8.408V11.192H95.1458V12.712H92.8577V16.36C92.8577 16.7547 92.9164 17.0373 93.0338 17.208C93.1511 17.368 93.3431 17.448 93.6098 17.448C93.9618 17.448 94.3458 17.336 94.7618 17.112L95.2257 18.664C94.6604 18.9733 93.9991 19.128 93.2418 19.128ZM102.567 15C102.567 15.192 102.551 15.432 102.519 15.72H96.8225C96.9398 16.2747 97.1958 16.712 97.5905 17.032C97.9852 17.3413 98.4705 17.496 99.0465 17.496C99.8572 17.496 100.508 17.192 100.999 16.584L102.247 17.656C101.489 18.6373 100.391 19.128 98.9505 19.128C97.7985 19.128 96.8438 18.76 96.0865 18.024C95.3398 17.2773 94.9665 16.3013 94.9665 15.096C94.9665 13.912 95.3238 12.9467 96.0385 12.2C96.7638 11.4533 97.6758 11.08 98.7745 11.08C99.9158 11.08 100.833 11.448 101.527 12.184C102.22 12.9093 102.567 13.848 102.567 15ZM100.103 13.128C99.7825 12.84 99.3718 12.696 98.8705 12.696C98.3692 12.696 97.9372 12.8347 97.5745 13.112C97.2225 13.3893 96.9825 13.7787 96.8545 14.28H100.759C100.641 13.7893 100.423 13.4053 100.103 13.128ZM107.695 11.08H107.919V13.08C107.642 13.0587 107.46 13.048 107.375 13.048C106.714 13.048 106.191 13.2613 105.807 13.688C105.434 14.104 105.247 14.6427 105.247 15.304V19H103.455V11.192H105.247V12.376H105.263C105.892 11.512 106.703 11.08 107.695 11.08Z" fill="#272835"/>
<path d="M63.87 34V26.9H68.51V27.98H65.08V30.1H67.96V31.19H65.08V34H63.87ZM73.4773 34L73.0373 33.45H73.0173C72.5373 33.87 71.9173 34.08 71.1573 34.08C70.5039 34.08 69.9539 33.88 69.5073 33.48C69.0673 33.08 68.8473 32.5633 68.8473 31.93C68.8473 31.0433 69.2806 30.3467 70.1473 29.84L69.3573 28.85C69.4306 28.2633 69.6706 27.78 70.0773 27.4C70.4839 27.0133 70.9739 26.82 71.5473 26.82C72.5406 26.82 73.2773 27.2833 73.7573 28.21L72.7973 28.58C72.5173 28.08 72.1339 27.8267 71.6473 27.82C71.3339 27.82 71.0839 27.9033 70.8973 28.07C70.7173 28.2367 70.5973 28.4433 70.5373 28.69L73.0573 31.83H73.0673C73.2539 31.45 73.3473 31.05 73.3473 30.63L74.4373 30.61C74.4373 31.4433 74.2273 32.16 73.8073 32.76V32.77L74.7973 34H73.4773ZM70.0173 31.86C70.0173 32.2 70.1339 32.4767 70.3673 32.69C70.6006 32.9033 70.9039 33.01 71.2773 33.01C71.6973 33.01 72.0673 32.8933 72.3873 32.66V32.64L70.7973 30.65C70.2773 30.9233 70.0173 31.3267 70.0173 31.86ZM79.0465 30.25C79.4732 30.3567 79.8132 30.5667 80.0665 30.88C80.3265 31.1867 80.4565 31.5767 80.4565 32.05C80.4565 32.6367 80.2565 33.11 79.8565 33.47C79.4632 33.8233 78.8865 34 78.1265 34H75.3165V26.9H77.7865C78.5265 26.9 79.0965 27.0467 79.4965 27.34C79.8965 27.6267 80.0965 28.0567 80.0965 28.63C80.0965 28.9833 80.0065 29.3067 79.8265 29.6C79.6532 29.8867 79.3932 30.1 79.0465 30.24V30.25ZM76.5265 27.98V29.84H77.6765C78.0098 29.84 78.2898 29.7633 78.5165 29.61C78.7498 29.45 78.8665 29.2133 78.8665 28.9C78.8665 28.28 78.4298 27.9733 77.5565 27.98H76.5265ZM77.7665 32.92C78.2065 32.9133 78.5532 32.8267 78.8065 32.66C79.0665 32.4933 79.1965 32.2467 79.1965 31.92C79.1965 31.6 79.0732 31.3467 78.8265 31.16C78.5865 30.9733 78.2398 30.88 77.7865 30.88H76.5265V32.92H77.7665ZM83.3166 34V26.9H84.5266V34H83.3166ZM88.3438 29.05C88.9038 29.05 89.3404 29.22 89.6538 29.56C89.9738 29.9 90.1338 30.4233 90.1338 31.13V34H89.0138V31.42C89.0138 30.9267 88.9238 30.5767 88.7438 30.37C88.5704 30.1633 88.3071 30.06 87.9538 30.06C87.5671 30.06 87.2604 30.19 87.0338 30.45C86.8071 30.71 86.6938 31.0767 86.6938 31.55V34H85.5738V29.12H86.6938V29.8H86.7038C87.1238 29.3 87.6704 29.05 88.3438 29.05ZM94.5315 26.64H95.6415V34H94.5715V33.35H94.5515C94.1782 33.8367 93.6515 34.08 92.9715 34.08C92.2848 34.08 91.7182 33.85 91.2715 33.39C90.8248 32.93 90.6015 32.3267 90.6015 31.58C90.6015 30.8467 90.8248 30.2433 91.2715 29.77C91.7248 29.29 92.2882 29.05 92.9615 29.05C93.6148 29.05 94.1315 29.27 94.5115 29.71H94.5315V26.64ZM92.1315 32.65C92.3982 32.9233 92.7348 33.06 93.1415 33.06C93.5482 33.06 93.8882 32.9233 94.1615 32.65C94.4348 32.3767 94.5715 32.0233 94.5715 31.59C94.5715 31.15 94.4382 30.7867 94.1715 30.5C93.9048 30.2067 93.5648 30.06 93.1515 30.06C92.7515 30.06 92.4148 30.2 92.1415 30.48C91.8748 30.76 91.7415 31.13 91.7415 31.59C91.7415 32.0233 91.8715 32.3767 92.1315 32.65ZM99.7427 29.12H100.863V34H99.7427V33.36C99.3427 33.84 98.8393 34.08 98.2327 34.08C97.0127 34.08 96.4027 33.4167 96.4027 32.09V29.12H97.5227V31.79C97.5227 32.2633 97.596 32.5933 97.7427 32.78C97.896 32.9667 98.146 33.06 98.4927 33.06C98.8393 33.06 99.1327 32.92 99.3727 32.64C99.6193 32.3533 99.7427 31.96 99.7427 31.46V29.12ZM103.244 34.08C102.464 34.08 101.807 33.8433 101.274 33.37L101.834 32.53C102.221 32.91 102.691 33.1 103.244 33.1C103.457 33.1 103.624 33.0567 103.744 32.97C103.864 32.8833 103.924 32.7667 103.924 32.62C103.924 32.5067 103.854 32.4133 103.714 32.34C103.581 32.26 103.331 32.1567 102.964 32.03C102.484 31.8633 102.114 31.6633 101.854 31.43C101.601 31.1967 101.474 30.8633 101.474 30.43C101.474 30.03 101.634 29.7 101.954 29.44C102.281 29.18 102.694 29.05 103.194 29.05C103.841 29.05 104.414 29.2533 104.914 29.66L104.354 30.54C103.987 30.1933 103.581 30.02 103.134 30.02C103.001 30.02 102.877 30.0567 102.764 30.13C102.657 30.1967 102.604 30.3 102.604 30.44C102.604 30.64 102.861 30.8367 103.374 31.03C104.007 31.2767 104.404 31.4567 104.564 31.57C104.897 31.8033 105.064 32.1467 105.064 32.6C105.064 33.0333 104.907 33.39 104.594 33.67C104.287 33.9433 103.837 34.08 103.244 34.08ZM107.026 34.08C106.599 34.08 106.266 33.9433 106.026 33.67C105.786 33.3967 105.666 32.9933 105.666 32.46V30.07H105.066V29.12H105.666V27.5L106.786 27.38V29.12H108.216V30.07H106.786V32.35C106.786 32.5967 106.823 32.7733 106.896 32.88C106.969 32.98 107.089 33.03 107.256 33.03C107.476 33.03 107.716 32.96 107.976 32.82L108.266 33.79C107.913 33.9833 107.499 34.08 107.026 34.08ZM111.278 29.05H111.418V30.3C111.245 30.2867 111.132 30.28 111.078 30.28C110.665 30.28 110.338 30.4133 110.098 30.68C109.865 30.94 109.748 31.2767 109.748 31.69V34H108.628V29.12H109.748V29.86H109.758C110.152 29.32 110.658 29.05 111.278 29.05ZM114.999 29.12H116.169L113.489 35.98H112.309L113.189 33.72L111.209 29.12H112.389L113.739 32.42L114.999 29.12Z" fill="#8F92A1"/>
</svg>
